<?xml version="1.0" encoding="UTF-8"?>
<svg width="16px" height="16px" viewBox="0 0 16 16" version="1.1" xmlns="http://www.w3.org/2000/svg" xmlns:xlink="http://www.w3.org/1999/xlink">
    <title>编组</title>
    <g id="新配色" stroke="none" stroke-width="1" fill="none" fill-rule="evenodd" fill-opacity="0.800000012">
        <g id="实训教学-合浆工序全屏发起考试" transform="translate(-1872.000000, -32.000000)" fill="#FFFFFF" fill-rule="nonzero">
            <g id="编组-12备份-3" transform="translate(1864.000000, 24.000000)">
                <g id="编组" transform="translate(8.000000, 8.000000)">
                    <path d="M8.679445,6.797638 C8.679445,6.816388 8.691945,6.835138 8.696145,6.853888 C8.700245,6.872638 8.708645,6.899722 8.716945,6.920555 C8.727545,6.942745 8.739345,6.964309 8.752345,6.985138 C8.760145,7.002456 8.769145,7.019169 8.779445,7.035138 C8.827445,7.10936 8.890645,7.172556 8.964845,7.220555 C8.979445,7.230971 8.998145,7.2393047 9.012745,7.2476382 L9.079445,7.2913883 C9.101645,7.2925744 9.123945,7.2925744 9.146145,7.2913883 L9.208645,7.3205549 C9.251845,7.32884135 9.295845,7.333055 9.339845,7.333055 L13.333645,7.333055 C13.701845,7.333055 14.000245,7.034578 14.000245,6.666388 C14.000245,6.298195 13.701845,5.999725 13.333645,5.999725 L10.944045,5.999725 L15.804445,1.137225 C16.065185,0.877485 16.065185,0.455295 15.804445,0.195555 C15.544705,-0.065185 15.122515,-0.065185 14.862775,0.195555 L10.000245,5.055975 L10.000245,2.666385 C10.000245,2.298195 9.701845,1.999725 9.333645,1.999725 C8.965445,1.999725 8.666945,2.298195 8.666945,2.666385 L8.666945,6.666388 C8.666945,6.710434 8.671145,6.754379 8.679445,6.797638 Z M1.11430805,15.8273608 L5.97680805,10.9669608 L5.97680805,13.3565608 C5.97680805,13.7247608 6.27527805,14.0231608 6.64347105,14.0231608 C7.01166105,14.0231608 7.31013805,13.7247608 7.31013805,13.3565608 L7.31013805,9.35656082 C7.31013805,9.31246082 7.3059244,9.26856082 7.29763795,9.22526082 C7.29763795,9.20656082 7.28513775,9.18776082 7.28097115,9.16906082 C7.27680455,9.15026082 7.26847105,9.12316082 7.26013785,9.10236082 C7.24958255,9.08016082 7.23775735,9.05856082 7.22472125,9.03776082 C7.21695105,9.02046082 7.20789805,9.00376082 7.19763805,8.98776082 C7.15009905,8.91316082 7.08681305,8.84986082 7.01222105,8.80236082 C6.99625205,8.79206082 6.97953905,8.78306082 6.96222105,8.77526082 C6.94139205,8.76226082 6.91982805,8.75046082 6.89763805,8.73986082 L6.83097105,8.71906082 L6.77472105,8.70236082 C6.73146205,8.69406082 6.68751705,8.68986082 6.64347105,8.68986082 L2.64346805,8.68986082 C2.27527805,8.68986082 1.97680805,8.98836082 1.97680805,9.35656082 C1.97680805,9.72476082 2.27527805,10.0231608 2.64346805,10.0231608 L5.03305805,10.0231608 L0.172638052,14.8856908 C-0.0660219484,15.1490908 -0.0560719484,15.5534008 0.195268052,15.8047408 C0.446598052,16.0560708 0.850908052,16.0660208 1.11430805,15.8273608 Z" id="形状"></path>
                </g>
            </g>
        </g>
    </g>
</svg>