<?xml version="1.0" encoding="UTF-8"?>
<svg width="20px" height="20px" viewBox="0 0 20 20" version="1.1" xmlns="http://www.w3.org/2000/svg" xmlns:xlink="http://www.w3.org/1999/xlink">
    <title>编组</title>
    <defs>
        <rect id="path-1" x="0" y="0" width="20" height="20"></rect>
    </defs>
    <g id="新配色" stroke="none" stroke-width="1" fill="none" fill-rule="evenodd">
        <g id="实训教学-合浆工序" transform="translate(-1737.000000, -1006.000000)">
            <g id="编组-11备份" transform="translate(1714.000000, 744.000000)">
                <g id="编组-8备份" transform="translate(16.000000, 256.000000)">
                    <g id="编组" transform="translate(7.000000, 6.000000)">
                        <mask id="mask-2" fill="white">
                            <use xlink:href="#path-1"></use>
                        </mask>
                        <g id="矩形"></g>
                        <path d="M8.50000325,20 L9.83332825,20 C12.9614907,19.9965 15.4964532,17.4615 15.4999532,14.333375 L15.4999532,7 C15.4965782,3.8718375 12.9614907,1.3368375 9.83332825,1.333325 L8.50000325,1.333325 C5.37184075,1.3368375 2.83684373,3.8718375 2.83332825,7 L2.83332825,14.333375 C2.83684373,17.4615 5.37184075,19.9965 8.50000325,20 Z M9.61266575,5.08235 C9.57561575,5.069125 9.53802825,5.05745 9.50000325,5.04735 L9.50000325,3.80465 L11.1283282,2.176325 C11.4757157,2.2688375 11.8120282,2.3988125 12.1313407,2.5639875 L9.61266575,5.08235 Z M9.16669075,5.666675 C9.53489075,5.666675 9.83336575,5.9651625 9.83336575,6.3333625 L9.83336575,9 C9.83336575,9.3682 9.53489075,9.666675 9.16669075,9.666675 C8.79847825,9.666675 8.50000325,9.3682 8.50000325,9 L8.50000325,6.333325 C8.50000325,5.96515 8.79849075,5.666675 9.16669075,5.666675 Z M10.5000032,7.471325 L13.8870032,4.0843375 C14.0864157,4.360325 14.2570782,4.655975 14.3963407,4.966675 L10.6953157,8.666675 L10.5000032,8.666675 L10.5000032,7.471325 Z M14.6453657,5.6593375 C14.7553157,6.05345 14.8162282,6.4596375 14.8266907,6.868675 L13.0286782,8.666675 L11.6380157,8.666675 L14.6453657,5.6593375 Z M14.8333282,7.80465 L14.8333282,8.6666375 L13.9713407,8.6666375 L14.8333282,7.80465 Z M13.4600032,3.568325 L10.5000032,6.528675 L10.5000032,6.333325 C10.4986032,6.0142375 10.3818657,5.706425 10.1713407,5.4666375 L12.7163407,2.9219875 C12.9847532,3.1126125 13.2338407,3.3290875 13.4600032,3.568325 Z M10.3363407,2.02535 L9.50000325,2.8619875 L9.50000325,2 L9.83332825,2 C10.0033282,2 10.1710282,2.0089875 10.3363407,2.02535 Z M8.50000825,2 L8.83332825,2 L8.83332825,5.04735 C8.24641575,5.1988625 7.83559075,5.7271875 7.83332825,6.3333625 L7.83332825,8.666675 L3.50000825,8.666675 L3.50000825,7 C3.50313325,4.2398875 5.73989075,2.003125 8.50000825,2 Z M3.50000825,9.333325 L7.88066575,9.333325 C8.03035325,9.9214125 8.55985325,10.3330125 9.16669075,10.3330125 C9.77352825,10.3330125 10.3030157,9.9214 10.4527032,9.333325 L14.8333657,9.333325 L14.8333657,14.333375 C14.8302407,17.093375 12.5934782,19.33025 9.83336575,19.333375 L8.50000825,19.333375 C5.73989075,19.33025 3.50313325,17.093375 3.50000825,14.333375 L3.50000825,9.333325 Z M13.8333282,2 C14.0174157,2 14.1666532,1.8507625 14.1666532,1.666675 L14.1666532,0.33332 C14.1666532,0.1492325 14.0174157,0 13.8333282,0 C13.6492407,0 13.5000032,0.1492325 13.5000032,0.33332 L13.5000032,1.6666375 C13.5000282,1.8507625 13.6492532,2 13.8333282,2 Z M15.1666907,2.333325 C15.2550907,2.333325 15.3398282,2.2981625 15.4023282,2.2356625 L16.3449532,1.2926625 C16.4800782,1.16337625 16.4824532,0.94831625 16.3502032,0.8161125 C16.2180782,0.6839075 16.0029532,0.68626125 15.8737032,0.82132875 L14.9310282,1.7643375 C14.8357157,1.8596625 14.8072157,2.0030125 14.8587907,2.12755 C14.9104032,2.2521125 15.0319282,2.333325 15.1666907,2.333325 Z M15.1666907,3.333325 C15.1666907,3.5174125 15.3159157,3.6666375 15.4999532,3.6666375 L16.8333282,3.6666375 C17.0174532,3.6666375 17.1667032,3.5174125 17.1667032,3.333325 C17.1667032,3.1492375 17.0174532,3 16.8333282,3 L15.4999532,3 C15.3159157,3 15.1666907,3.1492375 15.1666907,3.333325 Z" id="形状" fill="#FFFFFF" fill-rule="nonzero" mask="url(#mask-2)"></path>
                    </g>
                </g>
            </g>
        </g>
    </g>
</svg>