<?xml version="1.0" encoding="UTF-8"?>
<svg width="16px" height="16px" viewBox="0 0 16 16" version="1.1" xmlns="http://www.w3.org/2000/svg" xmlns:xlink="http://www.w3.org/1999/xlink">
    <title>编组</title>
    <defs>
        <rect id="path-1" x="0" y="0" width="16" height="16"></rect>
    </defs>
    <g id="新配色" stroke="none" stroke-width="1" fill="none" fill-rule="evenodd">
        <g id="实训教学-合浆工序全屏发起考试" transform="translate(-1872.000000, -1032.000000)">
            <g id="编组-12备份-3" transform="translate(1864.000000, 1024.000000)">
                <g id="编组" transform="translate(8.000000, 8.000000)">
                    <mask id="mask-2" fill="white">
                        <use xlink:href="#path-1"></use>
                    </mask>
                    <g id="矩形"></g>
                    <g mask="url(#mask-2)" fill="#FFFFFF" fill-opacity="0.8" fill-rule="nonzero" id="形状">
                        <path d="M14.5,16 L1.5,16 C0.671573,16 0,15.32843 0,14.5 L0,8.5 C0,7.671573 0.671573,7 1.5,7 L14.5,7 C15.3284,7 16,7.671573 16,8.5 L16,14.5 C16,15.32843 15.3284,16 14.5,16 Z M1.5,8 C1.22386,8 1,8.22386 1,8.5 L1,14.5 C1,14.77614 1.22386,15 1.5,15 L14.5,15 C14.7761,15 15,14.77614 15,14.5 L15,8.5 C15,8.22386 14.7761,8 14.5,8 L1.5,8 Z"></path>
                        <path d="M7.5,4.5 L7.5,7.5 L8.5,7.5 L8.5,4.5 C8.5,4.22386 8.72386,4 9,4 L10,4 C10.82843,4 11.5,3.32843 11.5,2.5 L11.5,0 L10.5,0 L10.5,2.5 C10.5,2.77614 10.27614,3 10,3 L9,3 C8.17157,3 7.5,3.67157 7.5,4.5 Z M2,10 L3,10 L3,9 L2,9 L2,10 Z M4,10 L5,10 L5,9 L4,9 L4,10 Z M6,10 L10,10 L10,9 L6,9 L6,10 Z M11,10 L12,10 L12,9 L11,9 L11,10 Z M13,10 L14,10 L14,9 L13,9 L13,10 Z M2,12 L3.5,12 L3.5,11 L2,11 L2,12 Z M4.5,11 L4.5,12 L5.5,12 L5.5,11 L4.5,11 Z M6.5,12 L7.5,12 L7.5,11 L6.5,11 L6.5,12 Z M8.5,11 L8.5,12 L9.5,12 L9.5,11 L8.5,11 Z M10.5,12 L11.5,12 L11.5,11 L10.5,11 L10.5,12 Z M12.5,12 L14,12 L14,11 L12.5,11 L12.5,12 Z M2,14 L3,14 L3,13 L2,13 L2,14 Z M4,14 L5,14 L5,13 L4,13 L4,14 Z M6,14 L10,14 L10,13 L6,13 L6,14 Z M11,14 L12,14 L12,13 L11,13 L11,14 Z M13,14 L14,14 L14,13 L13,13 L13,14 Z"></path>
                    </g>
                </g>
            </g>
        </g>
    </g>
</svg>