<?xml version="1.0" encoding="UTF-8"?>
<svg width="32px" height="32px" viewBox="0 0 32 32" version="1.1" xmlns="http://www.w3.org/2000/svg" xmlns:xlink="http://www.w3.org/1999/xlink">
    <title>Clipped</title>
    <defs>
        <rect id="path-1" x="0" y="0" width="32" height="32" rx="2"></rect>
        <rect id="path-3" x="0" y="0" width="32" height="32"></rect>
        <linearGradient x1="1.77635684e-13%" y1="50%" x2="100%" y2="50%" id="linearGradient-5">
            <stop stop-color="#4D4D4D" offset="0%"></stop>
            <stop stop-color="#9D9D9D" offset="100%"></stop>
        </linearGradient>
        <linearGradient x1="50%" y1="100%" x2="50%" y2="1.42108547e-12%" id="linearGradient-6">
            <stop stop-color="#8D8D8D" offset="0%"></stop>
            <stop stop-color="#C9C9C9" offset="100%"></stop>
        </linearGradient>
        <linearGradient x1="50.0200093%" y1="100.427115%" x2="50.0200093%" y2="-0.42711948%" id="linearGradient-7">
            <stop stop-color="#61676B" stop-opacity="0" offset="0%"></stop>
            <stop stop-color="#62686D" stop-opacity="0.00999999978" offset="20.0000003%"></stop>
            <stop stop-color="#676D72" stop-opacity="0.0500000007" offset="34.0000004%"></stop>
            <stop stop-color="#6E757A" stop-opacity="0.100000001" offset="44.9999988%"></stop>
            <stop stop-color="#798087" stop-opacity="0.189999998" offset="56.0000002%"></stop>
            <stop stop-color="#878E97" stop-opacity="0.300000012" offset="64.9999976%"></stop>
            <stop stop-color="#98A0AA" stop-opacity="0.430000007" offset="74.000001%"></stop>
            <stop stop-color="#ACB4C2" stop-opacity="0.589999974" offset="82.9999983%"></stop>
            <stop stop-color="#C3CDDD" stop-opacity="0.769999981" offset="91.0000026%"></stop>
            <stop stop-color="#DDE7FB" stop-opacity="0.970000029" offset="99.000001%"></stop>
            <stop stop-color="#E1EBFF" offset="100%"></stop>
        </linearGradient>
    </defs>
    <g id="新配色" stroke="none" stroke-width="1" fill="none" fill-rule="evenodd">
        <g id="实训教学-合浆工序" transform="translate(-1730.000000, -904.000000)">
            <g id="编组-11备份" transform="translate(1714.000000, 744.000000)">
                <g id="Clipped" transform="translate(16.000000, 160.000000)">
                    <mask id="mask-2" fill="white">
                        <use xlink:href="#path-1"></use>
                    </mask>
                    <g id="矩形"></g>
                    <g mask="url(#mask-2)">
                        <mask id="mask-4" fill="white">
                            <use xlink:href="#path-3"></use>
                        </mask>
                        <g id="矩形"></g>
                        <g id="编组" mask="url(#mask-4)">
                            <path d="M32,3.0059 L32,28.9941 C31.99,29.7912 31.6799,30.5554 31.1101,31.119 C30.55,31.6826 29.79,31.9994 28.99,32 L3,32 C2.19995,31.9994 1.43994,31.6826 0.880127,31.119 C0.310059,30.5554 0,29.7912 0,28.9941 L0,3.0059 C0,2.2088 0.310059,1.4446 0.880127,0.881001 C1.43994,0.317402 2.19995,0.000598907 3,0 L28.99,0 C29.79,0.000598907 30.55,0.317402 31.1101,0.881001 C31.6799,1.4446 31.99,2.2088 32,3.0059 Z" id="路径" fill="url(#linearGradient-5)" fill-rule="nonzero"></path>
                            <path d="M28.99,0.426701 C29.6699,0.4272 30.3301,0.6991 30.8101,1.1827 C31.3,1.6663 31.5701,2.322 31.5701,3.0059 L31.5701,28.9941 C31.5701,29.678 31.3,30.3337 30.8101,30.8173 C30.3301,31.3008 29.6699,31.5728 28.99,31.5733 L3,31.5733 C2.32007,31.5728 1.66016,31.3008 1.17993,30.8173 C0.689941,30.3337 0.419922,29.678 0.419922,28.9941 L0.419922,3.0059 C0.419922,2.322 0.689941,1.6663 1.17993,1.1827 C1.66016,0.6991 2.32007,0.4272 3,0.426701 L28.99,0.426701 Z M28.99,0 L3,0 C2.19995,0.000598907 1.43994,0.317402 0.880127,0.881001 C0.310059,1.4446 0,2.2088 0,3.0059 L0,28.9941 C0,29.7912 0.310059,30.5554 0.880127,31.119 C1.43994,31.6826 2.19995,31.9994 3,32 L28.99,32 C29.79,31.9994 30.55,31.6826 31.1101,31.119 C31.6799,30.5554 31.99,29.7912 32,28.9941 L32,3.0059 C31.99,2.2088 31.6799,1.4446 31.1101,0.881001 C30.55,0.317402 29.79,0.000598907 28.99,0 Z" id="形状" fill="url(#linearGradient-5)" fill-rule="nonzero"></path>
                            <path d="M31.0400512,31.0444996 C30.7600512,31.3224996 30.4299512,31.5429996 30.0700512,31.6933996 C29.7099512,31.8438996 29.3200512,31.9212996 28.9299512,31.9212996 L3.07007117,31.9212996 C2.66992117,31.9212996 2.28003117,31.8438996 1.91992217,31.6933996 C1.56005817,31.5429996 1.22998017,31.3224996 0.949951172,31.0444996 L4.60010117,27.3964996 L27.3901512,27.3964996 L31.0400512,31.0444996 Z" id="路径" fill="#434343" fill-rule="nonzero"></path>
                            <path d="M31.0400512,0.955898563 L27.3901512,4.60390156 L4.60010117,4.60390156 L0.949951172,0.955898563 C1.22998017,0.677898562 1.56005817,0.457401563 1.91992217,0.306999563 C2.28003117,0.156501762 2.66992117,0.0791015625 3.07007117,0.0791015625 L28.9299512,0.0791015625 C29.3200512,0.0791015625 29.7099512,0.156501762 30.0700512,0.306999563 C30.4299512,0.457401563 30.7600512,0.677898562 31.0400512,0.955898563 Z" id="路径" fill="#8F8F8F" fill-rule="nonzero"></path>
                            <path d="M31.9199267,3.07020046 L31.9199267,28.9305005 C31.9199267,29.3232005 31.8400867,29.7121005 31.6899367,30.0748005 C31.5400367,30.4376005 31.3200667,30.7672005 31.0400367,31.0446005 L27.3901367,27.3966005 L27.3901367,4.60410046 L31.0400367,0.956100464 C31.3200667,1.23350146 31.5400367,1.56299946 31.6899367,1.92580046 C31.8400867,2.28860046 31.9199267,2.67750046 31.9199267,3.07020046 Z" id="路径" fill="#777777" fill-rule="nonzero"></path>
                            <path d="M4.60009836,4.60410046 L4.60009836,27.3966005 L0.949951359,31.0446005 C0.669922359,30.7672005 0.449951359,30.4376005 0.300048359,30.0748005 C0.150146459,29.7121005 0.0700683594,29.3232005 0.0700683594,28.9305005 L0.0700683594,3.07020046 C0.0700683594,2.67750046 0.150146459,2.28860046 0.300048359,1.92580046 C0.449951359,1.56299946 0.669922359,1.23350146 0.949951359,0.956100464 L4.60009836,4.60410046 Z" id="路径" fill="#777777" fill-rule="nonzero"></path>
                            <path d="M26.49,3.50979996 L5.5,3.50979996 C4.400146,3.50979996 3.5,4.40190096 3.5,5.50229996 L3.5,26.4986 C3.5,27.599 4.400146,28.4911 5.5,28.4911 L26.49,28.4911 C27.5901,28.4911 28.49,27.599 28.49,26.4986 L28.49,5.50229996 C28.49,4.40190096 27.5901,3.50979996 26.49,3.50979996 Z" id="路径" fill="url(#linearGradient-6)" fill-rule="nonzero"></path>
                            <path d="M28.5967,26.4986 L28.5967,5.50229996 C28.5967,4.92303996 28.3904,4.42819896 27.9778,4.01777696 C27.5658,3.60801429 27.0698667,3.40313296 26.49,3.40313296 L5.5,3.40313296 C4.92018667,3.40313296 4.42429767,3.60801296 4.012333,4.01777296 C3.59966633,4.42823096 3.393333,4.92307329 3.393333,5.50229996 L3.393333,26.4986 C3.393333,27.0778 3.59966633,27.5726333 4.012333,27.9831 C4.42430433,28.3929 4.92019333,28.5978 5.5,28.5978 L26.49,28.5978 C27.0698667,28.5978 27.5658,28.3928333 27.9778,27.9831 C28.3903333,27.5727 28.5967,27.0778666 28.5967,26.4986 Z M27.8273,4.16902396 C28.1979667,4.53774129 28.3833,4.98216662 28.3833,5.50229996 L28.3833,26.4986 C28.3833,27.0187333 28.1979667,27.4631666 27.8273,27.8319 C27.4569667,28.2002333 27.0112,28.3844 26.49,28.3844 L5.5,28.3844 C4.97888,28.3844 4.533139,28.2002333 4.162777,27.8319 C3.792037,27.4631 3.606667,27.0186666 3.606667,26.4986 L3.606667,5.50229996 C3.606667,4.98220662 3.792037,4.53778229 4.162777,4.16902696 C4.533139,3.80065362 4.97888,3.61646696 5.5,3.61646696 L26.49,3.61646696 C27.0112,3.61646696 27.4569667,3.80065262 27.8273,4.16902396 Z" id="形状" fill="url(#linearGradient-7)"></path>
                            <path d="M13.5200195,11.7030029 L15.9999995,11.7030029 C16.4299295,11.6912994 16.8601095,11.7998962 17.2299795,12.0167994 C17.6101095,12.2335964 17.9199195,12.5503004 18.1301295,12.9317984 C18.2900395,13.1909984 18.4001495,13.4814984 18.4499495,13.7850984 C18.4999995,14.3022984 18.5100095,14.8214084 18.5100095,15.3402984 C18.5200195,15.8884984 18.4899895,16.4368984 18.4199195,16.9809084 C18.4001495,17.1269984 18.3601095,17.2701984 18.3100595,17.4074984 C18.2499995,17.5269984 18.1899395,17.6528984 18.1101095,17.7829984 C17.9001495,18.1321984 17.6101095,18.4249984 17.2600095,18.6362984 C16.8500995,18.8823984 16.3901395,19.0042084 15.9101595,18.9861984 L13.5200195,18.9861984 L13.5200195,11.7030029 Z M14.5800795,17.9514984 L15.8601095,17.9514984 C16.4599595,17.9514984 16.9001495,17.7381984 17.1699195,17.3114984 C17.3000495,17.1363984 17.3801295,16.9310984 17.4001495,16.7162984 C17.4399395,16.2729984 17.4499495,15.8279084 17.4399395,15.3829984 C17.4399395,14.7429984 17.4299295,14.2949984 17.4001495,14.0197984 C17.3701195,13.7761984 17.2800295,13.5450984 17.1201195,13.3541984 C16.9899895,13.1500984 16.8000495,12.9857984 16.5800795,12.8775984 C16.3500995,12.7694984 16.1101095,12.7211984 15.8601095,12.7376984 L14.5800795,12.7376984 L14.5800795,17.9514984 Z" id="形状" fill="#FFFFFF" fill-rule="nonzero"></path>
                        </g>
                    </g>
                </g>
            </g>
        </g>
    </g>
</svg>