<?xml version="1.0" encoding="UTF-8"?>
<svg width="32px" height="32px" viewBox="0 0 32 32" version="1.1" xmlns="http://www.w3.org/2000/svg" xmlns:xlink="http://www.w3.org/1999/xlink">
    <title>Clipped</title>
    <defs>
        <rect id="path-1" x="0" y="0" width="32" height="32" rx="2"></rect>
        <rect id="path-3" x="0" y="0" width="32" height="32"></rect>
        <linearGradient x1="1.77635684e-13%" y1="50%" x2="100%" y2="50%" id="linearGradient-5">
            <stop stop-color="#4D4D4D" offset="0%"></stop>
            <stop stop-color="#9D9D9D" offset="100%"></stop>
        </linearGradient>
        <linearGradient x1="50%" y1="100%" x2="50%" y2="1.42108547e-12%" id="linearGradient-6">
            <stop stop-color="#8D8D8D" offset="0%"></stop>
            <stop stop-color="#C9C9C9" offset="100%"></stop>
        </linearGradient>
        <linearGradient x1="50%" y1="100.428331%" x2="50%" y2="-0.428325543%" id="linearGradient-7">
            <stop stop-color="#61676B" stop-opacity="0" offset="0%"></stop>
            <stop stop-color="#62686D" stop-opacity="0.00999999978" offset="20.0000003%"></stop>
            <stop stop-color="#676D72" stop-opacity="0.0500000007" offset="34.0000004%"></stop>
            <stop stop-color="#6E757A" stop-opacity="0.100000001" offset="44.9999988%"></stop>
            <stop stop-color="#798087" stop-opacity="0.189999998" offset="56.0000002%"></stop>
            <stop stop-color="#878E97" stop-opacity="0.300000012" offset="64.9999976%"></stop>
            <stop stop-color="#98A0AA" stop-opacity="0.430000007" offset="74.000001%"></stop>
            <stop stop-color="#ACB4C2" stop-opacity="0.589999974" offset="82.9999983%"></stop>
            <stop stop-color="#C3CDDD" stop-opacity="0.769999981" offset="91.0000026%"></stop>
            <stop stop-color="#DDE7FB" stop-opacity="0.970000029" offset="99.000001%"></stop>
            <stop stop-color="#E1EBFF" offset="100%"></stop>
        </linearGradient>
    </defs>
    <g id="新配色" stroke="none" stroke-width="1" fill="none" fill-rule="evenodd">
        <g id="实训教学-合浆工序" transform="translate(-1766.000000, -904.000000)">
            <g id="编组-11备份" transform="translate(1714.000000, 744.000000)">
                <g id="编组-8" transform="translate(16.000000, 160.000000)">
                    <g id="Clipped" transform="translate(36.000000, 0.000000)">
                        <mask id="mask-2" fill="white">
                            <use xlink:href="#path-1"></use>
                        </mask>
                        <g id="矩形"></g>
                        <g mask="url(#mask-2)">
                            <mask id="mask-4" fill="white">
                                <use xlink:href="#path-3"></use>
                            </mask>
                            <g id="矩形"></g>
                            <path d="M32,3.00601 L32,28.994 C32,29.791 31.6801,30.555 31.12,31.119 C30.5601,31.683 29.79,31.999 28.99,32 L3.01001,32 C2.20996,31.999 1.44006,31.683 0.880005,31.119 C0.319946,30.555 0,29.791 0,28.994 L0,3.00601 C0,2.20901 0.319946,1.44501 0.880005,0.881012 C1.44006,0.316986 2.20996,0.00100708 3.01001,0 L28.99,0 C29.79,0.00100708 30.5601,0.316986 31.12,0.881012 C31.6801,1.44501 32,2.20901 32,3.00601 Z" id="路径" fill="url(#linearGradient-5)" fill-rule="nonzero" mask="url(#mask-4)"></path>
                            <path d="M28.99,0.427002 C29.6801,0.427002 30.33,0.699005 30.8199,1.18301 C31.3,1.66599 31.5699,2.32199 31.5699,3.00601 L31.5699,28.994 C31.5699,29.678 31.3,30.334 30.8199,30.817 C30.33,31.301 29.6801,31.573 28.99,31.573 L3.01001,31.573 C2.31995,31.573 1.67004,31.301 1.18005,30.817 C0.699951,30.334 0.430054,29.678 0.430054,28.994 L0.430054,3.00601 C0.430054,2.32199 0.699951,1.66599 1.18005,1.18301 C1.67004,0.699005 2.31995,0.427002 3.01001,0.427002 L28.99,0.427002 Z M28.99,0 L3.01001,0 C2.20996,0.00100708 1.44006,0.316986 0.880005,0.881012 C0.319946,1.44501 0,2.20901 0,3.00601 L0,28.994 C0,29.791 0.319946,30.555 0.880005,31.119 C1.44006,31.683 2.20996,31.999 3.01001,32 L28.99,32 C29.79,31.999 30.5601,31.683 31.12,31.119 C31.6801,30.555 32,29.791 32,28.994 L32,3.00601 C32,2.20901 31.6801,1.44501 31.12,0.881012 C30.5601,0.316986 29.79,0.00100708 28.99,0 Z" id="形状" fill="url(#linearGradient-5)" fill-rule="nonzero" mask="url(#mask-4)"></path>
                            <path d="M31.0400609,31.0440061 C30.7700609,31.3220061 30.4400609,31.5429961 30.0699609,31.6929961 C29.7099609,31.8439961 29.3199609,31.9210061 28.9300609,31.9210061 L3.06995094,31.9210061 C2.68005094,31.9210061 2.29004094,31.8439961 1.93005394,31.6929961 C1.56005894,31.5429961 1.22998094,31.3220061 0.959960938,31.0440061 L4.59997094,27.3959961 L27.4000609,27.3959961 L31.0400609,31.0440061 Z" id="路径" fill="#434343" fill-rule="nonzero" mask="url(#mask-4)"></path>
                            <path d="M31.0400609,0.95599401 L27.4000609,4.60400001 L4.59997094,4.60400001 L0.959960938,0.95599401 C1.22998094,0.67800901 1.56005894,0.45700101 1.93005394,0.30700701 C2.29004094,0.15701291 2.68005094,0.0790100098 3.06995094,0.0790100098 L28.9300609,0.0790100098 C29.3199609,0.0790100098 29.7099609,0.15701291 30.0699609,0.30700701 C30.4400609,0.45700101 30.7700609,0.67800901 31.0400609,0.95599401 Z" id="路径" fill="#8F8F8F" fill-rule="nonzero" mask="url(#mask-4)"></path>
                            <path d="M31.9200444,3.07000365 L31.9200444,28.9299937 C31.9200444,29.3229937 31.8399644,29.7119937 31.6900644,30.0749937 C31.5400344,30.4379937 31.3199444,30.7669937 31.0400344,31.0449937 L27.4000244,27.3969937 L27.4000244,4.60400365 L31.0400344,0.955993652 C31.3199444,1.23300165 31.5400344,1.56298865 31.6900644,1.92599465 C31.8399644,2.28900365 31.9200444,2.67700365 31.9200444,3.07000365 Z" id="路径" fill="#777777" fill-rule="nonzero" mask="url(#mask-4)"></path>
                            <path d="M4.59997605,4.60400365 L4.59997605,27.3969937 L0.959961055,31.0449937 C0.680054055,30.7669937 0.459961055,30.4379937 0.310059055,30.0749937 C0.160034155,29.7119937 0.0799560547,29.3229937 0.0799560547,28.9299937 L0.0799560547,3.07000365 C0.0799560547,2.67700365 0.160034155,2.28900365 0.310059055,1.92599465 C0.459961055,1.56298865 0.680054055,1.23300165 0.959961055,0.955993652 L4.59997605,4.60400365 Z" id="路径" fill="#777777" fill-rule="nonzero" mask="url(#mask-4)"></path>
                            <path d="M26.5000098,3.51000977 L5.49999977,3.51000977 C4.40002477,3.51000977 3.51000977,4.40200777 3.51000977,5.50200977 L3.51000977,26.4990098 C3.51000977,27.5990098 4.40002477,28.4910098 5.49999977,28.4910098 L26.5000098,28.4910098 C27.6000098,28.4910098 28.4900098,27.5990098 28.4900098,26.4990098 L28.4900098,5.50200977 C28.4900098,4.40200777 27.6000098,3.51000977 26.5000098,3.51000977 Z" id="路径" fill="url(#linearGradient-6)" fill-rule="nonzero" mask="url(#mask-4)"></path>
                            <path d="M28.5966098,26.4990098 L28.5966098,5.50200977 C28.5966098,4.92245643 28.3920764,4.42783243 27.9830098,4.01813777 C27.5736764,3.6082751 27.0793431,3.40334277 26.5000098,3.40334277 L5.49999977,3.40334277 C4.9206531,3.40334277 4.4263321,3.60827443 4.01703677,4.01813777 C3.60790743,4.42783243 3.40334277,4.92245643 3.40334277,5.50200977 L3.40334277,26.4990098 C3.40334277,27.0785431 3.60790743,27.5731764 4.01703677,27.9829098 C4.42632543,28.3927764 4.92064643,28.5977098 5.49999977,28.5977098 L26.5000098,28.5977098 C27.0793431,28.5977098 27.5736764,28.3927764 27.9830098,27.9829098 C28.3920764,27.5731764 28.5966098,27.0785431 28.5966098,26.4990098 Z M27.8320098,4.16888177 C28.1995431,4.53693377 28.3833098,4.98130977 28.3833098,5.50200977 L28.3833098,26.4990098 C28.3833098,27.0197431 28.1995431,27.4641098 27.8320098,27.8321098 C27.4644098,28.2002431 27.0204098,28.3843098 26.5000098,28.3843098 L5.49999977,28.3843098 C4.97961977,28.3843098 4.53561677,28.2002431 4.16799077,27.8321098 C3.8004481,27.4641098 3.61667577,27.0197431 3.61667577,26.4990098 L3.61667577,5.50200977 C3.61667577,4.98130977 3.8004481,4.53693377 4.16799077,4.16888177 C4.53561677,3.8007451 4.97961977,3.61667677 5.49999977,3.61667677 L26.5000098,3.61667677 C27.0204098,3.61667677 27.4644098,3.8007451 27.8320098,4.16888177 Z" id="形状" fill="url(#linearGradient-7)" mask="url(#mask-4)"></path>
                            <polygon id="路径" fill="#FFFFFF" fill-rule="nonzero" mask="url(#mask-4)" points="20.5200202 16.4249841 13.7399902 19.2560141 13.7399902 13.5939941"></polygon>
                        </g>
                    </g>
                </g>
            </g>
        </g>
    </g>
</svg>