<?xml version="1.0" encoding="UTF-8"?>
<svg width="32px" height="32px" viewBox="0 0 32 32" version="1.1" xmlns="http://www.w3.org/2000/svg" xmlns:xlink="http://www.w3.org/1999/xlink">
    <title>Clipped</title>
    <defs>
        <rect id="path-1" x="0" y="0" width="32" height="32" rx="2"></rect>
        <linearGradient x1="1.77635684e-13%" y1="50%" x2="100%" y2="50%" id="linearGradient-3">
            <stop stop-color="#4D4D4D" offset="0%"></stop>
            <stop stop-color="#9D9D9D" offset="100%"></stop>
        </linearGradient>
        <linearGradient x1="50%" y1="100%" x2="50%" y2="1.42108547e-12%" id="linearGradient-4">
            <stop stop-color="#8D8D8D" offset="0%"></stop>
            <stop stop-color="#C9C9C9" offset="100%"></stop>
        </linearGradient>
        <linearGradient x1="50%" y1="100.428331%" x2="50%" y2="-0.428325543%" id="linearGradient-5">
            <stop stop-color="#61676B" stop-opacity="0" offset="0%"></stop>
            <stop stop-color="#62686C" stop-opacity="0.00999999978" offset="20.9999993%"></stop>
            <stop stop-color="#666C71" stop-opacity="0.0500000007" offset="34.9999994%"></stop>
            <stop stop-color="#6D7479" stop-opacity="0.119999997" offset="46.9999999%"></stop>
            <stop stop-color="#777E85" stop-opacity="0.209999993" offset="57.9999983%"></stop>
            <stop stop-color="#848B93" stop-opacity="0.330000013" offset="68.0000007%"></stop>
            <stop stop-color="#939BA5" stop-opacity="0.479999989" offset="76.9999981%"></stop>
            <stop stop-color="#A6AEBB" stop-opacity="0.649999976" offset="86.0000014%"></stop>
            <stop stop-color="#BBC3D3" stop-opacity="0.850000024" offset="93.9999998%"></stop>
            <stop stop-color="#CBD4E6" offset="100%"></stop>
        </linearGradient>
    </defs>
    <g id="新配色" stroke="none" stroke-width="1" fill="none" fill-rule="evenodd">
        <g id="实训教学-合浆工序" transform="translate(-1730.000000, -952.000000)">
            <g id="编组-11备份" transform="translate(1714.000000, 744.000000)">
                <g id="Clipped" transform="translate(16.000000, 208.000000)">
                    <mask id="mask-2" fill="white">
                        <use xlink:href="#path-1"></use>
                    </mask>
                    <g id="矩形"></g>
                    <g id="编组" mask="url(#mask-2)">
                        <path d="M32,3.006 L32,28.994 C32,29.791 31.683,30.555 31.119,31.119 C30.555,31.683 29.791,31.999 28.994,32 L3.00601,32 C2.20901,31.999 1.44501,31.683 0.881012,31.119 C0.318024,30.555 0.00100708,29.791 0,28.994 L0,3.006 C0.00100708,2.209 0.318024,1.44501 0.881012,0.880997 C1.44501,0.317001 2.20901,0.00100708 3.00601,0 L28.994,0 C29.791,0.00100708 30.555,0.317001 31.119,0.880997 C31.683,1.44501 32,2.209 32,3.006 Z" id="路径" fill="url(#linearGradient-3)" fill-rule="nonzero"></path>
                        <path d="M28.994,0.427002 C29.678,0.427002 30.334,0.699005 30.817,1.183 C31.301,1.666 31.573,2.32201 31.573,3.006 L31.573,28.994 C31.573,29.678 31.301,30.334 30.817,30.817 C30.334,31.301 29.678,31.573 28.994,31.573 L3.00601,31.573 C2.32202,31.573 1.66602,31.301 1.18301,30.817 C0.699005,30.334 0.427002,29.678 0.427002,28.994 L0.427002,3.006 C0.427002,2.32201 0.699005,1.666 1.18301,1.183 C1.66602,0.699005 2.32202,0.427002 3.00601,0.427002 L28.994,0.427002 Z M28.994,0 L3.00601,0 C2.20901,0.00100708 1.44501,0.317001 0.881012,0.880997 C0.318024,1.44501 0.00100708,2.209 0,3.006 L0,28.994 C0.00100708,29.791 0.318024,30.555 0.881012,31.119 C1.44501,31.683 2.20901,31.999 3.00601,32 L28.994,32 C29.791,31.999 30.555,31.683 31.119,31.119 C31.683,30.555 32,29.791 32,28.994 L32,3.006 C32,2.209 31.683,1.44501 31.119,0.880997 C30.555,0.317001 29.791,0.00100708 28.994,0 Z" id="形状" fill="url(#linearGradient-3)" fill-rule="nonzero"></path>
                        <path d="M31.0440242,31.0440061 C30.7670242,31.3220061 30.4370242,31.5429961 30.0740242,31.6929961 C29.7120242,31.8439961 29.3230242,31.9210061 28.9300242,31.9210061 L3.07000417,31.9210061 C2.67700417,31.9210061 2.28802417,31.8439961 1.92501817,31.6929961 C1.56301917,31.5429961 1.23300217,31.3220061 0.95602417,31.0440061 L4.60400417,27.3959961 L27.3960242,27.3959961 L31.0440242,31.0440061 Z" id="路径" fill="#434343" fill-rule="nonzero"></path>
                        <path d="M31.0440242,0.955993751 L27.3960242,4.60400475 L4.60400417,4.60400475 L0.95602417,0.955993751 C1.23300217,0.677993751 1.56301917,0.457000751 1.92501817,0.307006751 C2.28802417,0.156997651 2.67700417,0.078994751 3.07000417,0.078994751 L28.9300242,0.078994751 C29.3230242,0.078994751 29.7120242,0.156997651 30.0740242,0.307006751 C30.4370242,0.457000751 30.7670242,0.677993751 31.0440242,0.955993751 Z" id="路径" fill="#8F8F8F" fill-rule="nonzero"></path>
                        <path d="M31.9210232,3.07000365 L31.9210232,28.9299937 C31.9210232,29.3229937 31.8440232,29.7119937 31.6940032,30.0749937 C31.5430032,30.4379937 31.3230332,30.7669937 31.0450132,31.0449937 L27.3970032,27.3969937 L27.3970032,4.60400365 L31.0450132,0.955993652 C31.3230332,1.23300165 31.5430032,1.56300365 31.6940032,1.92599465 C31.8440232,2.28900365 31.9210232,2.67700365 31.9210232,3.07000365 Z" id="路径" fill="#777777" fill-rule="nonzero"></path>
                        <path d="M4.60400001,4.60400365 L4.60400001,27.3969937 L0.95602401,31.0449937 C0.67800901,30.7669937 0.45700101,30.4379937 0.30700701,30.0749937 C0.15701291,29.7119937 0.0790100098,29.3229937 0.0790100098,28.9299937 L0.0790100098,3.07000365 C0.0790100098,2.67700365 0.15701291,2.28900365 0.30700701,1.92599465 C0.45700101,1.56300365 0.67800901,1.23300165 0.95602401,0.955993652 L4.60400001,4.60400365 Z" id="路径" fill="#777777" fill-rule="nonzero"></path>
                        <path d="M26.4980027,3.50999451 L5.50201269,3.50999451 C4.40100069,3.50999451 3.50900269,4.40199251 3.50900269,5.50199451 L3.50900269,26.4989945 C3.50900269,27.5989945 4.40100069,28.4909945 5.50201269,28.4909945 L26.4980027,28.4909945 C27.5990027,28.4909945 28.4910027,27.5989945 28.4910027,26.4989945 L28.4910027,5.50199451 C28.4910027,4.40199251 27.5990027,3.50999451 26.4980027,3.50999451 Z" id="路径" fill="url(#linearGradient-4)" fill-rule="nonzero"></path>
                        <path d="M28.5977027,26.4989945 L28.5977027,5.50199451 C28.5977027,4.92248117 28.392736,4.42783517 27.9828027,4.01805651 C27.5728694,3.60823717 27.077936,3.40332751 26.4980027,3.40332751 L5.50201269,3.40332751 C4.92211269,3.40332751 4.42718069,3.60823717 4.01721669,4.01805651 C3.60729602,4.42783517 3.40233569,4.92248117 3.40233569,5.50199451 L3.40233569,26.4989945 C3.40233569,27.0785278 3.60729602,27.5731612 4.01721669,27.9828945 C4.42717402,28.3927612 4.92210602,28.5976945 5.50201269,28.5976945 L26.4980027,28.5976945 C27.0778694,28.5976945 27.5728027,28.3927612 27.9828027,27.9828945 C28.392736,27.5731612 28.5977027,27.0785278 28.5977027,26.4989945 Z M27.8320027,4.16893251 C28.2002694,4.53705384 28.3844027,4.98140784 28.3844027,5.50199451 L28.3844027,26.4989945 C28.3844027,27.0195945 28.2002027,27.4639612 27.8320027,27.8320945 C27.4636694,28.2002278 27.0190027,28.3842945 26.4980027,28.3842945 L5.50201269,28.3842945 C4.98100602,28.3842945 4.53634835,28.2002278 4.16803969,27.8320945 C3.79979302,27.4639612 3.61566869,27.0195945 3.61566869,26.4989945 L3.61566869,5.50199451 C3.61566869,4.98140784 3.79979235,4.53705384 4.16803969,4.16893251 C4.53634835,3.80075184 4.98100602,3.61666151 5.50201269,3.61666151 L26.4980027,3.61666151 C27.0190027,3.61666151 27.4636694,3.80075184 27.8320027,4.16893251 Z" id="形状" fill="url(#linearGradient-5)"></path>
                        <polygon id="路径" fill="#FFFFFF" fill-rule="nonzero" points="13.0130005 14.3059998 14.9870005 14.3059998 14.9870005 14.7619938 13.4780275 14.7619938 13.4780275 15.6729998 14.7580305 15.6729998 14.7580305 16.1000098 13.4780275 16.1000098 13.4780275 17.0379898 14.9840105 17.0379898 14.9840105 17.4929998 13.0130005 17.4929998"></polygon>
                        <path d="M15.5270077,16.8020036 C15.6150207,16.8979936 15.7230227,16.9740036 15.8440247,17.0240036 C15.9640197,17.0749936 16.0940247,17.0990036 16.2240007,17.0950036 C16.3330107,17.1000036 16.4410107,17.0729936 16.5360107,17.0180036 C16.5730307,16.9960036 16.6040007,16.9649936 16.6250007,16.9279936 C16.6470007,16.8900036 16.6580207,16.8480036 16.6570107,16.8040036 C16.6610107,16.7720036 16.6560107,16.7389936 16.6440107,16.7100036 C16.6310107,16.6799936 16.6110207,16.6540036 16.5850207,16.6340036 C16.5250207,16.5980036 16.4580107,16.5800036 16.3880007,16.5800036 L15.9999997,16.5420036 C15.8320007,16.5319936 15.6720277,16.4649936 15.5480037,16.3500036 C15.4860227,16.2920036 15.4380187,16.2220036 15.4060057,16.1439976 C15.3730167,16.0659946 15.3580017,15.9819946 15.3600157,15.8979946 C15.3550107,15.7969976 15.3740237,15.6970066 15.4160157,15.6060026 C15.4580077,15.5140076 15.5220027,15.4349976 15.6010127,15.3730016 C15.7690127,15.2510071 15.9739987,15.1889954 16.1820067,15.197998 C16.2730107,15.1970062 16.3640107,15.2039948 16.4550207,15.2169953 C16.5320107,15.2310029 16.6080007,15.2510071 16.6810007,15.279007 C16.8150007,15.3329926 16.9380207,15.4109956 17.0460207,15.5070036 L16.7720007,15.8379976 C16.6890307,15.7760006 16.5990007,15.7230076 16.5040307,15.6799926 C16.4000207,15.6430056 16.2900107,15.6249996 16.1790157,15.6269986 C16.0770267,15.6170046 15.9739987,15.6430056 15.8890077,15.7019956 C15.8610227,15.7259976 15.8380127,15.7570036 15.8230287,15.7910006 C15.8080137,15.8249966 15.8010257,15.8619996 15.8020017,15.8999936 C15.8010257,15.9259946 15.8070067,15.9519956 15.8180237,15.9750066 C15.8300167,15.9989926 15.8470157,16.0189976 15.8680117,16.0339966 C15.9300227,16.0820006 16.0040287,16.1100006 16.0810237,16.1150056 L16.4480307,16.1430056 C16.5410107,16.1419986 16.6330307,16.1609956 16.7180207,16.1970066 C16.8030107,16.2339936 16.8800007,16.2879936 16.9430207,16.3560036 C17.0430007,16.4909936 17.0930207,16.6550036 17.0860007,16.8220036 C17.0890207,16.9219936 17.0670207,17.0209936 17.0210307,17.1100036 C16.9760107,17.1990036 16.9090307,17.2749936 16.8260207,17.3309936 C16.6340007,17.4609936 16.4070107,17.5280036 16.1750187,17.5209936 C15.8110047,17.5189936 15.4630127,17.3719936 15.2070007,17.1139936 L15.5270077,16.8020036 Z" id="路径" fill="#FFFFFF" fill-rule="nonzero"></path>
                        <path d="M19.2320264,17.1309943 C19.1370264,17.2429943 19.0220064,17.3370043 18.8930064,17.4080043 C18.7540264,17.4830043 18.5989964,17.5229943 18.4410064,17.5240117 C18.1860044,17.5249943 17.9410094,17.4259943 17.7580264,17.2480043 C17.6470034,17.1309943 17.5620114,16.9909943 17.5080261,16.8390043 C17.45401,16.6860043 17.4320068,16.5240043 17.4440002,16.3630043 C17.4320068,16.1999943 17.45401,16.0370023 17.5080261,15.8820033 C17.5620114,15.7279963 17.6470034,15.5870053 17.7580264,15.4669953 C17.9080204,15.3269963 18.0970154,15.2369995 18.3000184,15.2079926 C18.5030164,15.1790008 18.7100264,15.2140045 18.8930064,15.3070063 C19.0240164,15.3789973 19.1390064,15.4759983 19.2320264,15.5930023 L18.9060064,15.8919983 C18.8560164,15.8190003 18.7900064,15.7590023 18.7120064,15.7180023 C18.6340064,15.6759953 18.5480064,15.6540073 18.4600264,15.6530003 C18.0820004,15.6530003 17.8919984,15.8829953 17.8860164,16.3630043 C17.8800044,16.8430043 18.0820004,17.0670043 18.4580064,17.0670043 C18.5460164,17.0670043 18.6340064,17.0460043 18.7120064,17.0039943 C18.7900064,16.9620043 18.8560164,16.9019943 18.9060064,16.8280043 L19.2320264,17.1309943 Z" id="路径" fill="#FFFFFF" fill-rule="nonzero"></path>
                    </g>
                </g>
            </g>
        </g>
    </g>
</svg>