<?xml version="1.0" encoding="UTF-8"?>
<svg width="16px" height="16px" viewBox="0 0 16 16" version="1.1" xmlns="http://www.w3.org/2000/svg" xmlns:xlink="http://www.w3.org/1999/xlink">
    <title>编组 16</title>
    <g id="新配色" stroke="none" stroke-width="1" fill="none" fill-rule="evenodd">
        <g id="实训教学-合浆工序" transform="translate(-1864.000000, -984.000000)">
            <g id="编组-12备份-2" transform="translate(1856.000000, 976.000000)">
                <g id="编组-16" transform="translate(8.000000, 8.000000)">
                    <rect id="矩形备份-3" fill-opacity="0" fill="#000000" x="0" y="0" width="16" height="16"></rect>
                    <path d="M2.50104889,14.9667719 C2.29186133,14.8871654 2.15510965,14.6909506 2.15716426,14.4734863 L2.15716426,12.2611015 L1.83220827,12.2611015 C0.794790562,12.2338154 -0.0243214968,11.3998498 0.00055180394,10.3962156 L0.00055180394,3.86417763 C-0.0243173438,2.86067235 0.794905314,2.02690405 1.83220827,2 L14.1649954,2 C15.2029006,2.02652843 16.0232139,2.8600539 15.9994985,3.86417763 L15.9994985,10.3962156 C16.0227768,11.400315 15.2027913,12.2338154 14.1649954,12.2611015 L5.57495076,12.2611015 L3.10213114,14.8321914 C2.99926958,14.9402364 2.85398253,15.0011307 2.70213822,14.9999841 C2.6336367,15.0001792 2.56560512,14.9889729 2.50104889,14.9667719 Z M1.09124324,3.86629202 L1.09124324,10.3983299 C1.06632674,10.8192085 1.39729793,11.1806094 1.83220827,11.2074304 L2.47992358,11.2074304 C2.68695816,11.2010238 2.88755571,11.2775222 3.03437278,11.4188687 C3.2113314,11.6219129 3.29079447,11.8881137 3.25294814,12.1511536 L3.25294814,13.1314873 L4.79609023,11.5281189 C4.98984636,11.3264807 5.26122954,11.211416 5.54580374,11.2102531 L14.1693669,11.2102531 C14.6042226,11.1834321 14.935255,10.8220312 14.9103374,10.4011526 L14.9103374,3.86911472 C14.9339436,3.44903964 14.6033483,3.08896019 14.1693669,3.06212867 L1.83657977,3.06212867 C1.40203009,3.08675066 1.06929281,3.44574121 1.09124324,3.86629202 Z M11.1989277,7.18235314 C11.1996927,6.69451208 11.6089751,6.29955588 12.1132285,6.29994675 C12.6161704,6.30150111 13.0231577,6.69588643 13.024032,7.18235314 C13.0235949,7.66874584 12.6160611,8.06296201 12.1132285,8.06334376 C11.6095215,8.06412492 11.2004577,7.66968674 11.1995834,7.18235314 L11.1989277,7.18235314 Z M7.54212906,7.94635378 C7.25922696,7.78919168 7.08451967,7.4979354 7.08385301,7.18235314 C7.08465081,6.69478695 7.49347418,6.29994675 7.99749805,6.29994675 C8.50180606,6.29955588 8.91106657,6.69451208 8.91186437,7.18235314 C8.91119772,7.4979354 8.73649043,7.78919168 8.45358833,7.94635378 C8.31476019,8.02264073 8.15789958,8.06294087 7.99821934,8.0633426 C7.83855004,8.06297259 7.6816785,8.02267244 7.54286128,7.94635378 L7.54212906,7.94635378 Z M2.97171815,7.18235314 C2.97251595,6.69588643 3.37956885,6.30150111 3.88245613,6.29994675 C4.38676414,6.29955588 4.79602466,6.69451208 4.79682246,7.18235314 C4.79602466,7.66996161 4.38652371,8.06451609 3.88245613,8.06334521 C3.37991858,8.06257085 2.97285474,7.66847097 2.97245038,7.18235314 L2.97171815,7.18235314 Z" id="形状" fill-opacity="0.8" fill="#FFFFFF" fill-rule="nonzero"></path>
                </g>
            </g>
        </g>
    </g>
</svg>