<?xml version="1.0" encoding="UTF-8"?>
<svg width="20px" height="20px" viewBox="0 0 20 20" version="1.1" xmlns="http://www.w3.org/2000/svg" xmlns:xlink="http://www.w3.org/1999/xlink">
    <title>编组</title>
    <defs>
        <rect id="path-1" x="0" y="0" width="20" height="20"></rect>
    </defs>
    <g id="新配色" stroke="none" stroke-width="1" fill="none" fill-rule="evenodd">
        <g id="实训教学-合浆工序全屏粉料投送站" transform="translate(-1663.000000, -936.000000)">
            <g id="编组-11备份-2" transform="translate(1635.000000, 752.000000)">
                <g id="编组-6备份-3" transform="translate(16.000000, 172.000000)">
                    <g id="编组" transform="translate(12.000000, 12.000000)">
                        <mask id="mask-2" fill="white">
                            <use xlink:href="#path-1"></use>
                        </mask>
                        <g id="矩形"></g>
                        <path d="M3.00000097,16.9176789 C2.99858494,14.3286294 4.55114233,11.9741917 6.97903769,10.8835109 C7.88039869,11.4442551 8.9281525,11.7453291 9.99986936,11.7515525 C11.0715862,11.7453291 12.11934,11.4442551 13.020701,10.8835109 C15.4485964,11.9741917 17.0011538,14.3286294 16.9998687,16.9176789 C17.0495136,19.6707398 3.00000097,19.7173764 3.00000097,16.9176789 L3.00000097,16.9176789 Z M13.3240286,9.67547375 C12.8988673,10.1001686 12.3828236,10.4298107 11.8120573,10.6413017 C11.25829,10.8820065 10.6034135,10.9797928 9.99986936,10.9797928 C9.3947697,10.9797928 8.73989322,10.8835109 8.18612593,10.6413017 C7.62951095,10.4056281 7.11908026,10.0788992 6.67726562,9.67547375 C6.23559979,9.27038819 5.89147502,8.77630119 5.66928471,8.22823624 C5.41728949,7.69718131 5.31618029,7.11798543 5.31618029,6.48914419 C5.31618029,5.90994832 5.41728949,5.33075242 5.66928471,4.75155655 C5.92127994,4.22050162 6.27282883,3.6894467 6.6757101,3.30281464 C7.12992372,2.86954603 7.63235865,2.53105493 8.18612593,2.3384911 C8.79122559,2.09778632 9.3947697,2 9.99986936,2 C10.6034135,2 11.2598455,2.09628191 11.8120573,2.3384911 C12.3658246,2.57919588 12.9211474,2.91768698 13.3240286,3.30281464 C13.7751312,3.73909206 14.1297911,4.22050162 14.330454,4.75155655 C14.5824492,5.28261148 14.6835584,5.86180735 14.6835584,6.48914419 C14.6835584,7.06984449 14.5824492,7.64753596 14.330454,8.22823624 C14.1282356,8.75929117 13.7766867,9.24220514 13.3240286,9.67547375 L13.3240286,9.67547375 Z" id="形状备份-2" fill="#FF7C4D" fill-rule="nonzero" mask="url(#mask-2)"></path>
                    </g>
                </g>
            </g>
        </g>
    </g>
</svg>