<?xml version="1.0" encoding="UTF-8"?>
<svg width="16px" height="16px" viewBox="0 0 16 16" version="1.1" xmlns="http://www.w3.org/2000/svg" xmlns:xlink="http://www.w3.org/1999/xlink">
    <title>编组</title>
    <defs>
        <rect id="path-1" x="0" y="0" width="16" height="16"></rect>
    </defs>
    <g id="新配色" stroke="none" stroke-width="1" fill="none" fill-rule="evenodd">
        <g id="实训教学-合浆工序全屏发起考试" transform="translate(-1832.000000, -32.000000)">
            <g id="编组-12备份" transform="translate(1824.000000, 24.000000)">
                <g id="编组" transform="translate(8.000000, 8.000000)">
                    <mask id="mask-2" fill="white">
                        <use xlink:href="#path-1"></use>
                    </mask>
                    <g id="矩形"></g>
                    <g opacity="0.800000012" mask="url(#mask-2)" fill="#FFFFFF" fill-rule="nonzero">
                        <g transform="translate(2.000000, 0.000000)">
                            <path d="M6.5,1.31919906 C6.77896996,1.31919906 7.00214592,1.54534747 7.00214592,1.82803298 C7.00214592,2.11071849 6.77896996,2.3368669 6.5,2.3368669 C6.22103004,2.3368669 5.99785408,2.11071849 5.99785408,1.82803298 C5.99785408,1.63957597 6.09084406,1.52650177 6.14663805,1.46996466 C6.20243205,1.41342756 6.32331903,1.31919906 6.5,1.31919906 M5.2074392,5.48409894 L7.7925608,5.48409894 L7.87625179,7.49116608 C7.36480687,7.66077739 6.99284692,8.14134276 6.98354793,8.71613663 L6.89985694,12.9187279 L6.13733906,12.9187279 L6.04434907,8.71613663 C6.03505007,8.13191991 5.65379113,7.65135453 5.13304721,7.48174323 L5.2074392,5.48409894 M6.5,0 C5.50500715,0 4.69599428,0.819787986 4.69599428,1.82803298 C4.69599428,2.83627797 5.50500715,3.65606596 6.5,3.65606596 C7.49499285,3.65606596 8.30400572,2.83627797 8.30400572,1.82803298 C8.30400572,0.819787986 7.49499285,0 6.5,0 Z M4.81688126,4.16489988 C4.36123033,4.16489988 3.97067239,4.51354535 3.9241774,4.97526502 L3.79399142,8.22614841 C3.77539342,8.35806832 3.81258941,8.48998822 3.8962804,8.59363958 C3.97997139,8.69729093 4.11015737,8.75382803 4.24034335,8.75382803 L4.74248927,8.75382803 L4.84477825,13.4275618 C4.89127325,13.8987044 5.27253219,14.2567727 5.73748212,14.2567727 L7.29041488,14.2567727 C7.75536481,14.2567727 8.14592275,13.8987044 8.19241774,13.4275618 L8.28540773,8.76325088 L8.76895565,8.76325088 C9.02002861,8.75382803 9.21530758,8.54652532 9.20600858,8.29210836 L9.20600858,8.24499411 L9.0758226,5.01295642 C9.02932761,4.5418139 8.63876967,4.19316843 8.18311874,4.19316843 L4.81688126,4.16489988 C4.82618026,4.16489988 4.82618026,4.16489988 4.81688126,4.16489988 Z" id="形状"></path>
                            <path d="M6.5,16 C4.86337625,16 3.31044349,15.745583 2.12947067,15.2744405 C0.753218884,14.7279152 0,13.9363958 0,13.0223793 C0,11.7879859 1.3297568,10.8080094 3.65450644,10.3274441 L3.9148784,11.6183746 C2.11087268,11.9952886 1.3018598,12.664311 1.3018598,13.0223793 C1.3018598,13.5877503 3.13376252,14.6713781 6.5,14.6713781 C9.86623748,14.6713781 11.6981402,13.5783274 11.6981402,13.0223793 C11.6981402,12.8433451 11.4935622,12.6077739 11.1587983,12.3816254 C10.6938484,12.0800942 10.0150215,11.8162544 9.18741059,11.6372203 L9.46638054,10.3462898 C11.7167382,10.836278 13,11.8068316 13,13.0129564 C13,13.9175501 12.2467811,14.7184923 10.8705293,15.2650177 C9.68955651,15.7361602 8.13662375,16 6.5,16 Z" id="路径"></path>
                        </g>
                    </g>
                </g>
            </g>
        </g>
    </g>
</svg>