<?xml version="1.0" encoding="UTF-8"?>
<svg width="24px" height="24px" viewBox="0 0 24 24" version="1.1" xmlns="http://www.w3.org/2000/svg" xmlns:xlink="http://www.w3.org/1999/xlink">
    <title>编组备份</title>
    <g id="页面-1" stroke="none" stroke-width="1" fill="none" fill-rule="evenodd">
        <g id="登录适配-1920x919-中文" transform="translate(-766.000000, -482.000000)" fill="#FFFFFF">
            <g id="编组-4" transform="translate(700.000000, 235.000000)">
                <g id="编组-3备份-2" transform="translate(50.000000, 231.000000)">
                    <g id="编组备份" transform="translate(16.000000, 16.000000)">
                        <rect id="矩形" fill-opacity="0" x="0" y="0" width="24" height="24"></rect>
                        <path d="M18.2174,9.85602 L17.4565,9.85602 L17.4565,7.35579 C17.4554,4.39757 14.9009,2 11.75,2 C8.59914,2 6.04457,4.39757 6.04348,7.35579 L6.04348,9.85602 L5.28261,9.85602 C4.02196,9.85602 3,10.8155 3,11.99907 L3,13.785 C3,18.322 6.91751,22 11.75,22 C16.5825,22 20.5,18.322 20.5,13.785 L20.5,11.99907 C20.5,10.8155 19.478,9.85602 18.2174,9.85602 Z M8.32609,7.35579 C8.32609,5.58042 9.85903,4.14121 11.75,4.14121 C13.641,4.14121 15.1739,5.58042 15.1739,7.35579 L15.1739,9.85602 L8.32609,9.85602 L8.32609,7.35579 Z M12.51087,16.2852 C12.51046,16.6794 12.16992,16.9988 11.75,16.9988 C11.33007,16.9988 10.98954,16.6794 10.98913,16.2852 L10.98913,13.4278 C10.98954,13.0335 11.33007,12.7141 11.75,12.7141 C12.16992,12.7141 12.51046,13.0335 12.51087,13.4278 L12.51087,16.2852 Z" id="形状" fill-rule="nonzero"></path>
                    </g>
                </g>
            </g>
        </g>
    </g>
</svg>