<?xml version="1.0" encoding="UTF-8"?>
<svg width="24px" height="24px" viewBox="0 0 24 24" version="1.1" xmlns="http://www.w3.org/2000/svg" xmlns:xlink="http://www.w3.org/1999/xlink">
    <title>编组备份</title>
    <g id="页面-1" stroke="none" stroke-width="1" fill="none" fill-rule="evenodd">
        <g id="登录适配-1920x919-译文" transform="translate(-766.000000, -382.000000)" fill="#FFFFFF">
            <g id="编组-4" transform="translate(700.000000, 235.000000)">
                <g id="编组-3" transform="translate(50.000000, 131.000000)">
                    <g id="编组备份" transform="translate(16.000000, 16.000000)">
                        <rect id="矩形" fill-opacity="0" x="0" y="0" width="24" height="24"></rect>
                        <path d="M11.47599,4.00749273 C9.30219,4.13530869 7.512,5.90646969 7.36587,8.07933969 C7.20146,10.6356597 9.21086,12.7720097 11.73173,12.7720097 C14.1613,12.7720097 16.1159,10.7999897 16.1159,8.38974969 C16.1341,5.86994969 14.0151,3.86141869 11.47599,4.00749273 Z M11.75,14.1961997 C8.82724,14.1961997 3,15.6569997 3,18.5784997 L3,20.7695997 C3,21.1712997 3.32881,21.4999997 3.730689,21.4999997 L19.7693,21.4999997 C20.1712,21.4999997 20.5,21.1712997 20.5,20.7695997 L20.5,18.5601997 C20.5,15.6569997 14.6728,14.1961997 11.75,14.1961997 Z" id="形状" fill-rule="nonzero"></path>
                    </g>
                </g>
            </g>
        </g>
    </g>
</svg>