<?xml version="1.0" encoding="UTF-8"?>
<svg width="16px" height="16px" viewBox="0 0 16 16" version="1.1" xmlns="http://www.w3.org/2000/svg" xmlns:xlink="http://www.w3.org/1999/xlink">
    <title>编组</title>
    <defs>
        <rect id="path-1" x="0" y="0" width="16" height="16"></rect>
    </defs>
    <g id="页面-1" stroke="none" stroke-width="1" fill="none" fill-rule="evenodd">
        <g id="班级管理列表" transform="translate(-332.000000, -282.000000)">
            <g id="编组-12" transform="translate(16.000000, 104.000000)">
                <g id="编组-11" transform="translate(24.000000, 80.000000)">
                    <g id="编组-9备份-2" transform="translate(24.000000, 94.000000)">
                        <g id="编组" transform="translate(268.000000, 4.000000)">
                            <mask id="mask-2" fill="white">
                                <use xlink:href="#path-1"></use>
                            </mask>
                            <g id="矩形"></g>
                            <g id="编组-8" mask="url(#mask-2)" fill="#FF4444" fill-rule="nonzero">
                                <g transform="translate(2.000000, 1.000000)" id="形状">
                                    <path d="M12.4366881,2.25222555 L8.79088821,2.25222555 C8.73575124,1.00070079 7.7315576,0 6.50493461,0 C5.27830036,0 4.27410672,1.00070079 4.21898101,2.25222555 L0.563311927,2.25222555 C0.25220489,2.25222555 0,2.51238872 0,2.83331009 C0,3.15423146 0.25220489,3.41439463 0.563311927,3.41439463 L12.4366881,3.41439463 C12.7477489,3.41439463 13,3.15423146 13,2.83331009 C13,2.51238872 12.7477489,2.25222555 12.4366881,2.25222555 Z M6.50493461,1.16215048 C7.11012315,1.16215048 7.60847394,1.64201706 7.66179705,2.25221393 L5.34808344,2.25221393 C5.40140655,1.64201706 5.89974608,1.16215048 6.50493461,1.16215048 Z M11.0283632,4.57361179 C10.7172573,4.57361179 10.4650513,4.83377496 10.4650513,5.15469633 L10.4650513,13.8378309 L2.5877198,13.8378309 L2.5877198,5.15469633 C2.5877198,4.83377496 2.33551378,4.57361179 2.02440787,4.57361179 C1.71329069,4.57361179 1.46109595,4.83377496 1.46109595,5.15469633 L1.46109595,14.4189155 C1.46109595,14.7397903 1.71329069,15 2.02440787,15 L11.0283632,15 C11.3394691,15 11.5917202,14.7397903 11.5917202,14.4189155 L11.5917202,5.15469633 C11.5917202,4.83377496 11.3394691,4.57361179 11.0283632,4.57361179 Z"></path>
                                    <path d="M5.42297752,11.4924536 L5.42297752,6.32454339 C5.42297752,6.00362086 5.17077263,5.74345885 4.85966559,5.74345885 C4.54855856,5.74345885 4.29635367,6.00362086 4.29635367,6.32454339 L4.29635367,11.492442 C4.29635367,11.8133633 4.54855856,12.0735265 4.85966559,12.0735265 C5.17077263,12.0735265 5.42297752,11.8133749 5.42297752,11.4924536 Z M8.79464726,11.4924536 L8.79464726,6.32454339 C8.79464726,6.00362086 8.54244125,5.74345885 8.23133534,5.74345885 C7.92022943,5.74345885 7.66802341,6.00362086 7.66802341,6.32454339 L7.66802341,11.492442 C7.66802341,11.8133633 7.92022943,12.0735265 8.23133534,12.0735265 C8.54244125,12.0735265 8.79464726,11.8133749 8.79464726,11.4924536 Z"></path>
                                </g>
                            </g>
                        </g>
                    </g>
                </g>
            </g>
        </g>
    </g>
</svg>