<?xml version="1.0" encoding="UTF-8"?>
<svg width="24px" height="24px" viewBox="0 0 24 24" version="1.1" xmlns="http://www.w3.org/2000/svg" xmlns:xlink="http://www.w3.org/1999/xlink">
    <path d="M16.7027872,5.88852744 L17.3124094,6.48938819 C17.7951413,7.00755326 18.1383971,7.14720217 17.9452585,8.24234362 C17.7522344,9.33196967 16.8207527,15.3148582 16.6812765,16.1233519 C16.5328756,16.9924091 15.7248516,16.9998179 15.6890386,16.9998179 L4.31159843,16.9998179 C3.75142033,17.0083634 3.42008319,16.7162081 3.31758703,16.1233519 C3.1799186,15.3148582 2.24669779,9.33196967 2.05540389,8.24234362 C1.86053509,7.14720217 2.20557804,7.00755326 2.6864942,6.48938819 L3.29791848,5.88852744 L3.29791848,7.44488073 L16.7027872,7.44488073 L16.7027872,5.88852744 Z M13.1361313,9.66639793 C12.7177826,9.66639793 12.3798931,10.0155143 12.3798931,10.4436573 L12.3798931,11.8879151 C12.3798931,12.0110296 12.2833467,12.110248 12.1635733,12.110248 L7.83890579,12.110248 C7.71912098,12.110248 7.62258603,12.0110296 7.62258603,11.8879151 L7.62258603,10.4436573 C7.62258603,10.0136798 7.28290016,9.66639793 6.86634788,9.66639793 C6.44979561,9.66639793 6.11010973,10.0155143 6.11010973,10.4436573 L6.11010973,12.7772582 C6.11010973,13.0124564 6.2012899,13.23847 6.36398167,13.4056842 C6.52667345,13.5728865 6.74656307,13.6666013 6.97540023,13.6666013 L13.0288638,13.6666013 C13.257701,13.6666013 13.4775563,13.5728983 13.6402595,13.4056842 C13.8029627,13.23847 13.8941543,13.0124564 13.8941543,12.7772582 L13.8941543,10.4436573 C13.8923236,10.0155143 13.5527293,9.66639793 13.1361313,9.66639793 Z M14.7879923,5.00101893 C15.3434563,5.00101893 15.6211884,5.26010539 15.6211884,5.7782783 L15.6211884,6.55553767 L4.37952874,6.55553767 L4.37952874,5.7782783 C4.37952874,5.26010539 4.65723407,5.00101893 5.21264473,5.00101893 L14.7879923,5.00101893 Z M13.4812177,3 C14.0437757,3 14.3250547,3.37055941 14.3250547,4.11167823 L5.89200504,4.11167823 C5.89200504,3.37055941 6.17268525,3 6.73404568,3 L13.4812177,3 Z" id="形状" fill-rule="nonzero"></path>
</svg>