<?xml version="1.0" encoding="UTF-8"?>
<svg width="40px" height="40px" viewBox="0 0 40 40" version="1.1" xmlns="http://www.w3.org/2000/svg" xmlns:xlink="http://www.w3.org/1999/xlink">
    <title>编组 28备份 19</title>
    <g id="页面-1" stroke="none" stroke-width="1" fill="none" fill-rule="evenodd">
        <g id="校级管理员首页-考勤少员情况" transform="translate(-676.000000, -620.000000)" fill="#D8D8D8">
            <g id="编组-29" transform="translate(676.000000, 236.000000)">
                <g id="编组-28备份-19" transform="translate(0.000000, 384.000000)">
                    <rect id="矩形" fill-opacity="0" x="0" y="0" width="40" height="40"></rect>
                    <path d="M19.997551,34 L19.916,33.999 L19.5090935,33.9986342 C14.11625,33.9713189 10.2798855,33.5342742 8,32.6875 C8,30.39605 8.56262458,28.6898 9.68787374,27.56875 C10.0227736,27.2352 10.4246397,26.9699 10.9068894,26.816775 C11.0435311,26.773025 11.1801728,26.729275 11.3141224,26.685525 C14.0383445,25.8037719 16.5581217,24.9194507 16.6126182,24.0376418 L16.5991483,24.211025 C16.6500421,23.61795 16.6473671,23.02197 16.6419999,22.4260425 C16.6393249,22.193695 16.6366499,21.9586 16.6366499,21.7262525 C16.299153,21.4638225 15.4404765,21.078385 15.2369187,20.698425 C14.8967468,20.0287 14.6503203,19.307035 14.5458578,18.558035 C14.5431828,18.53616 14.5271156,18.5170325 14.5030063,18.5115725 C14.1280079,18.42409 13.852122,18.09607 13.7074829,17.7379675 C13.5387345,17.330655 13.4557064,16.893295 13.428922,16.4559175 C13.4074877,16.034955 13.5708861,15.608515 13.8762314,15.3324175 C13.9056907,15.3050825 13.9190829,15.26408 13.9083829,15.2258075 C13.5976704,13.9082325 13.3699861,12.555115 13.423572,11.19379 C13.4583814,10.33818 13.6083876,9.4716325 13.9646267,8.6980275 C14.2565797,8.063845 14.6931719,7.4979965 15.2422687,7.08795925 C16.3458123,6.256956 18.7466762,6.02186853 20.0752291,6 C20.8252087,6.01366789 22.6100149,6.12301083 23.260882,6.541247 C23.5019585,6.69159475 23.6974913,6.91028 23.8528304,7.150835 C24.4849724,7.25197625 25.1197724,7.48979775 25.5992332,7.949045 C26.2929005,8.6105625 26.6116723,9.58918 26.705469,10.5431925 C26.8633974,12.125945 26.5662314,13.71141 26.1376129,15.2203475 C26.1268957,15.26135 26.1376129,15.3050825 26.1697815,15.3324175 C26.4911254,15.6221825 26.6517974,16.0786875 26.6091001,16.521525 C26.5607442,17.0463675 26.456316,17.593085 26.1670379,18.04413 C26.0197582,18.2710175 25.7947489,18.4377575 25.5376223,18.503365 C25.516188,18.5088425 25.5001208,18.52524 25.4974458,18.549845 C25.3876161,19.3425775 25.1304896,20.110705 24.7635334,20.8159725 C24.5813928,21.1522 23.6613691,21.4856975 23.3613739,21.720775 C23.3613739,21.96133 23.3560067,22.201885 23.3560067,22.44244 C23.3513209,22.9643765 23.3486872,23.4862593 23.3840956,24.0082648 C23.3917968,24.8972 25.9316277,25.794075 28.6858947,26.685525 C28.8225536,26.729275 28.9564689,26.773025 29.0931278,26.816775 C29.5752917,26.9727 29.9772092,27.2352 30.3120834,27.56875 C31.4373611,28.6898 32,30.39605 32,32.6875 C29.7154941,33.5625 25.7333495,34 20.0535661,34 L19.997551,34 Z" id="形状结合" fill-rule="nonzero"></path>
                </g>
            </g>
        </g>
    </g>
</svg>