<?xml version="1.0" encoding="UTF-8"?>
<svg width="40px" height="40px" viewBox="0 0 40 40" version="1.1" xmlns="http://www.w3.org/2000/svg" xmlns:xlink="http://www.w3.org/1999/xlink">
    <title>编组 28备份 12</title>
    <g id="页面-1" stroke="none" stroke-width="1" fill="none" fill-rule="evenodd">
        <g id="校级管理员首页-考勤少员情况" transform="translate(-820.000000, -236.000000)" fill="#34BF00">
            <g id="编组-29" transform="translate(676.000000, 236.000000)">
                <g id="编组-41" transform="translate(96.000000, 0.000000)">
                    <g id="编组-28备份-12" transform="translate(48.000000, 0.000000)">
                        <rect id="矩形" fill-opacity="0" x="0" y="0" width="40" height="40"></rect>
                        <path d="M32,32.6875 C29.7154941,33.5625 25.7333495,34 20.0535661,34 C14.373737,34 10.3558817,33.5625 8,32.6875 C8,30.39605 8.56262458,28.6898 9.68787374,27.56875 C10.0227736,27.2352 10.4246397,26.9699 10.9068894,26.816775 C11.0435311,26.773025 11.1801728,26.729275 11.3141224,26.685525 C14.0683037,25.794075 16.6135187,24.9 16.6135187,24.00855 L16.6135187,22.3050825 C16.6135187,22.2449175 16.5652852,22.2011675 16.5117019,22.2011675 C16.4983103,22.2011675 16.4849188,22.2038975 16.4715273,22.209375 C16.3054105,22.28046 15.9812358,22.3734375 15.442728,22.3734375 C15.0113697,22.3734375 14.4433867,22.3132725 13.7066293,22.1328125 L13.0368296,21.9167925 L11.4320057,21.4 C11.1453479,21.3070225 11.0381813,20.9515625 11.2257143,20.7109375 C11.7963721,19.980855 12.739438,18.4769575 12.739438,16.519145 C12.739438,13.7109375 12.739438,9.035165 15.6436525,7.1621085 C17.0877266,6.2296875 18.521084,6 19.6061414,6 C19.742783,6 19.8767327,6.00273438 20.0026577,6.0109375 C20.1232159,6.00546875 20.2518158,6.00273438 20.3830905,6.00273438 C21.47084,6.00273438 22.9068722,6.2296875 24.3589709,7.16484375 C27.2632369,9.037895 27.2632369,13.7136675 27.2632369,16.521875 C27.2632369,18.4796875 28.2088748,19.9836025 28.7769435,20.7136675 C28.9645279,20.9542925 28.8573613,21.30977 28.5706692,21.40273 L26.9631704,21.91954 L26.2959941,22.1328125 C25.5592024,22.3132725 24.9912709,22.3734375 24.5599126,22.3734375 C24.0214047,22.3734375 23.6972301,22.27773 23.5338053,22.209375 C23.5203967,22.2038975 23.5070051,22.2011675 23.4936136,22.2011675 C23.4400303,22.2011675 23.3917968,22.2449175 23.3917968,22.3050825 L23.3917968,24.00855 C23.3917968,24.8972 25.9316277,25.794075 28.6858947,26.685525 C28.8225536,26.729275 28.9564689,26.773025 29.0931278,26.816775 C29.5752917,26.9727 29.9772092,27.2352 30.3120834,27.56875 C31.4373611,28.6898 32,30.39605 32,32.6875 Z" id="路径" fill-rule="nonzero"></path>
                    </g>
                </g>
            </g>
        </g>
    </g>
</svg>