<?xml version="1.0" encoding="UTF-8"?>
<svg width="24px" height="24px" viewBox="0 0 24 24" version="1.1" xmlns="http://www.w3.org/2000/svg" xmlns:xlink="http://www.w3.org/1999/xlink">
    <path d="M17.6153846,1 L4.46153846,1 C3.69684308,1 3.07692308,1.61991862 3.07692308,2.38461538 L3.07692308,16.2307692 L1,16.2307692 L1,17.6153846 C1,18.3801077 1.61991862,19 2.38461538,19 L15.5384615,19 C16.3031846,19 16.9230769,18.3801077 16.9230769,17.6153846 L16.9230769,3.76923077 L19,3.76923077 L19,2.38461538 C19,1.61991862 18.3801077,1 17.6153846,1 Z M6.19230769,4.46153846 L9.65384615,4.46153846 C9.84500615,4.46153846 10,4.61653231 10,4.80769231 C10,4.99885231 9.84500615,5.15384615 9.65384615,5.15384615 L6.19230769,5.15384615 C6.00114769,5.15384615 5.84615385,4.99885231 5.84615385,4.80769231 C5.84615385,4.61653231 6.00114769,4.46153846 6.19230769,4.46153846 Z M2.38461538,18.3076923 C2.00226631,18.3076923 1.69230769,17.9976769 1.69230769,17.6153846 L1.69230769,16.9230769 L13.4615385,16.9230769 L13.4615385,17.6153846 C13.4612615,17.8585231 13.5253277,18.0973692 13.6472292,18.3076923 L2.38461538,18.3076923 Z M13.8076923,13.4615385 L6.19230769,13.4615385 C6.00114769,13.4615385 5.84615385,13.3065723 5.84615385,13.1153846 C5.84615385,12.9241969 6.00114769,12.7692308 6.19230769,12.7692308 L13.8076923,12.7692308 C13.99888,12.7692308 14.1538462,12.9241969 14.1538462,13.1153846 C14.1538462,13.3065723 13.99888,13.4615385 13.8076923,13.4615385 Z M5.84615385,10.3461538 C5.84615385,10.1549662 6.00114769,10 6.19230769,10 L11.0384615,10 C11.2296492,10 11.3846154,10.1549662 11.3846154,10.3461538 C11.3846154,10.5373415 11.2296492,10.6923077 11.0384615,10.6923077 L6.19230769,10.6923077 C6.00114769,10.6923077 5.84615385,10.5373415 5.84615385,10.3461538 Z M13.8076923,7.92307692 L6.19230769,7.92307692 C6.00114769,7.92307692 5.84615385,7.76808308 5.84615385,7.57692308 C5.84615385,7.38576308 6.00114769,7.23076923 6.19230769,7.23076923 L13.8076923,7.23076923 C13.99888,7.23076923 14.1538462,7.38576308 14.1538462,7.57692308 C14.1538462,7.76808308 13.99888,7.92307692 13.8076923,7.92307692 Z M18.3076923,3.07692308 L16.9230769,3.07692308 L16.9230769,2.38461538 C16.9230769,2.00226631 17.2330923,1.69230769 17.6153846,1.69230769 C17.9976769,1.69230769 18.3076923,2.00226631 18.3076923,2.38461538 L18.3076923,3.07692308 Z" id="形状" fill-rule="nonzero"></path>
</svg>