<?xml version="1.0" encoding="UTF-8"?>
<svg width="24px" height="24px" viewBox="0 0 24 24" version="1.1" xmlns="http://www.w3.org/2000/svg" xmlns:xlink="http://www.w3.org/1999/xlink">
    <path d="M10.2,15.7 L20.1,15.7 C20.4488625,15.7001125 20.766225,15.9017125 20.9145,16.2175 C20.398125,16.64455 20.0994375,17.27995 20.1,17.95 C20.1,18.6475 20.4168,19.2703 20.9145,19.6825 C20.7661125,19.9982875 20.44875,20.2 20.1,20.2 L4.35,20.2 C3.60441525,20.2 3,19.5955375 3,18.85 L3,17.05 C3,16.3044625 3.60441525,15.7 4.35,15.7 L5.7,15.7 L5.7,19.3 L7.95,17.05 L10.2,19.3 L10.2,15.7 Z M10.2,9.85 L20.1,9.85 C20.4488625,9.8500675 20.766225,10.0517238 20.9145,10.3675 C20.398125,10.7945388 20.0994375,11.4298938 20.1,12.1 C20.1,12.7975 20.4168,13.4203 20.9145,13.8325 C20.7661125,14.1483438 20.44875,14.35 20.1,14.35 L10.2,14.35 L10.2,9.85 Z M5.7,9.85 L5.7,14.35 L4.35,14.35 C3.60441525,14.35 3,13.7455825 3,13 L3,11.2 C3,10.4544175 3.60441525,9.85 4.35,9.85 L5.7,9.85 Z M5.7,8.5 L4.35,8.5 C3.60441525,8.5 3,7.8955825 3,7.15 L3,5.35 C3,4.60441525 3.60441525,4 4.35,4 L20.1,4 C20.4488625,4.00006786 20.766225,4.20172375 20.9145,4.5175 C20.398125,4.94453988 20.0994375,5.57989375 20.1,6.25 C20.1,6.9475 20.4168,7.5703 20.9145,7.9825 C20.7661125,8.29834375 20.44875,8.5 20.1,8.5 L10.2,8.5 L10.2,6.25 C10.2,5.5044175 9.5955825,4.9 8.85,4.9 L7.05,4.9 C6.3044175,4.9 5.7,5.5044175 5.7,6.25 L5.7,8.5 Z M9.3,6.25 L9.3,17.1274 L7.95,15.7774 L6.6,17.1274 L6.6,6.25 C6.6,6.00147625 6.80147625,5.8 7.05,5.8 L8.85,5.8 C9.09852375,5.8 9.3,6.00147625 9.3,6.25 Z" id="形状" fill-rule="nonzero"></path>
</svg>