<svg xmlns="http://www.w3.org/2000/svg" width="16" height="16" viewBox="0 0 16 16">
    <g transform="translate(-1570 -154)">
        <rect class="a" width="16" height="16" fill="none" transform="translate(1570 154)"/>
        <g transform="translate(1570 154)">
            <g transform="translate(-327 -112)">
                <g transform="translate(327 128)">
                    <path class="b"
                          fill="currentColor"
                          d="M7.993-4.6a.532.532,0,0,0,.515-.505l.079-6.844,2.522,2.782a.486.486,0,0,0,.666.067l.072-.067a.62.62,0,0,0,0-.816L8.363-13.831a.488.488,0,0,0-.739,0L4.14-9.984a.621.621,0,0,0,.013.8.488.488,0,0,0,.726.014l2.6-2.871L7.4-5.118l.006.083A.546.546,0,0,0,7.993-4.6ZM12-2.5a.507.507,0,0,1-.437.493L11.478-2H4.521A.513.513,0,0,1,4-2.459a.5.5,0,0,1,.435-.534L4.521-3h6.957A.511.511,0,0,1,12-2.5Z"/>
                </g>
            </g>
        </g>
    </g>
</svg>
