<?xml version="1.0" encoding="UTF-8"?>
<svg width="24px" height="24px" viewBox="0 0 24 24" version="1.1" xmlns="http://www.w3.org/2000/svg" xmlns:xlink="http://www.w3.org/1999/xlink">
    <path d="M17.5998058,17.4445925 L17.5998058,19 L6.4001942,19 L6.4001942,17.4445925 L17.5998058,17.4445925 Z M20,5 L20,15.8891406 L4,15.8891406 L4,5 L19.9989719,5 L20,5 Z M13.2794105,7.92928408 C12.9640645,7.92928408 12.6949265,7.98201955 12.4689695,8.07770532 C12.2644429,8.15846344 12.0936614,8.30354151 11.9839043,8.48975946 C11.8754494,8.66453732 11.830258,8.94477501 11.830258,9.32948401 C11.830258,9.60093615 11.866402,9.81086729 11.9387129,9.98564515 C12.0100184,10.1614004 12.1004013,10.2922506 12.2088675,10.3879363 C12.3163171,10.4845995 12.5322329,10.6418063 12.8656509,10.8517374 C13.2070997,11.0616686 13.4139795,11.2198528 13.4953264,11.306753 C13.5756679,11.3946306 13.6218646,11.5869907 13.6218646,11.8847994 C13.6218646,12.0156385 13.6037812,12.1123128 13.5585898,12.1816308 C13.5166997,12.248572 13.441316,12.2887567 13.3607574,12.2870906 C13.2703631,12.2870906 13.2070997,12.2607229 13.1709443,12.2089759 C13.142831,12.1660145 13.1257529,12.0791143 13.1197327,11.9521738 L13.1177222,11.8496462 L13.1177222,11.2452431 L11.8764547,11.2452431 L11.8764547,11.5782051 C11.8764547,11.9541286 11.9125987,12.2431518 11.9939455,12.4442974 C12.0742871,12.645443 12.2359755,12.8124127 12.4880467,12.9432518 C12.7401179,13.0740908 13.0464166,13.1443974 13.4059488,13.1443974 C13.7303194,13.1443974 14.0185461,13.0828764 14.2615813,12.9686421 C14.5046165,12.8465886 14.6662935,12.7069529 14.7566878,12.5409606 C14.8370179,12.3749683 14.8822207,12.1113354 14.8912567,11.7617685 C14.8912567,11.2715997 14.8109152,10.912281 14.6572575,10.6945307 C14.5046165,10.4670284 14.1260071,10.1867907 13.532487,9.84504316 C13.3256072,9.72298965 13.199069,9.62729278 13.1548828,9.53941514 C13.1015693,9.42112687 13.076826,9.29252031 13.082572,9.16349169 C13.082572,9.03167523 13.100644,8.93597836 13.1458468,8.87446846 C13.1840585,8.81370272 13.2523482,8.77697226 13.3256072,8.77780528 C13.3979066,8.77780528 13.4511402,8.80416191 13.4872956,8.84810072 C13.5093887,8.89009584 13.5244449,8.96527831 13.5304765,9.08342219 L13.532487,9.18106277 L13.532487,9.54820069 L14.7747597,9.54820069 L14.7747597,9.34705509 C14.7747597,8.95356055 14.7386043,8.67332286 14.6572575,8.50733054 C14.5769159,8.34133822 14.4142223,8.20952177 14.1711985,8.0952764 C13.9281632,7.98200844 13.6319059,7.92928408 13.2804158,7.92928408 L13.2794105,7.92928408 Z M8.93294684,8.03474391 L6.00852765,8.03474391 L6.00852765,9.04046078 L6.80089675,9.04046078 L6.80089675,13.039915 L8.13254701,13.039915 L8.13254701,9.04046078 L8.93395211,9.04046078 L8.93395211,8.03474391 L8.93294684,8.03474391 Z M11.4616898,8.03474391 L9.23924548,8.03474391 L9.23924548,13.039915 L11.5520727,13.039915 L11.5520727,12.0332207 L10.5719124,12.0332207 L10.5719124,10.9396151 L11.4084677,10.9396151 L11.4084677,9.98564515 L10.5719124,9.98564515 L10.5719124,9.03167523 L11.4626951,9.03167523 L11.4626951,8.03474391 L11.4616898,8.03474391 Z M17.995402,8.03474391 L15.0700119,8.03474391 L15.0700119,9.04046078 L15.8624038,9.04046078 L15.8624038,13.039915 L17.2030672,13.039915 L17.2030672,9.04046078 L17.995402,9.04046078 L17.995402,8.03474391 Z" id="形状" fill-rule="nonzero"></path>
</svg>