<?xml version="1.0" encoding="UTF-8"?>
<svg width="24px" height="24px" viewBox="1.1 0 24 24" version="1.1" xmlns="http://www.w3.org/2000/svg" xmlns:xlink="http://www.w3.org/1999/xlink">
    <path d="M4.800001,18.7951894 C4.79854451,16.0538429 6.39546068,13.5609088 8.89272448,12.4060703 C9.81983865,12.9997995 10.8975283,13.3185838 11.9998656,13.3251732 C13.102203,13.3185838 14.1798926,12.9997995 15.1070068,12.4060703 C17.6042706,13.5609088 19.2011868,16.0538429 19.199865,18.7951894 C19.2509283,21.7101951 4.800001,21.759575 4.800001,18.7951894 L4.800001,18.7951894 Z M15.4190009,11.1269722 C14.9816921,11.5766491 14.4509043,11.9256819 13.8638303,12.1496135 C13.2942411,12.4044774 12.6206539,12.5080159 11.9998656,12.5080159 C11.3774774,12.5080159 10.7038902,12.4060703 10.134301,12.1496135 C9.56178269,11.9000768 9.03676827,11.5541286 8.58233036,11.1269722 C8.1280455,10.6980581 7.77408859,10.1749071 7.54554999,9.59460308 C7.2863549,9.03230962 7.18235686,8.4190434 7.18235686,7.7532115 C7.18235686,7.13994528 7.2863549,6.52667904 7.54554999,5.91341281 C7.80474508,5.35111936 8.16633823,4.78882592 8.58073039,4.37945079 C9.04792154,3.9206958 9.56471176,3.56229346 10.134301,3.35840234 C10.7566892,3.10353846 11.3774774,3 11.9998656,3 C12.6206539,3 13.2958411,3.10194555 13.8638303,3.35840234 C14.4334195,3.61326622 15.0046087,3.97166856 15.4190009,4.37945079 C15.8829921,4.8413916 16.2477852,5.35111936 16.4541813,5.91341281 C16.7133764,6.47570627 16.8173744,7.08897249 16.8173744,7.7532115 C16.8173744,8.36807063 16.7133764,8.97974396 16.4541813,9.59460308 C16.2461852,10.1568965 15.884592,10.6682172 15.4190009,11.1269722 L15.4190009,11.1269722 Z" id="形状" fill-rule="nonzero"></path>
</svg>