<?xml version="1.0" encoding="UTF-8"?>
<svg width="40px" height="40px" viewBox="0 0 40 40" version="1.1" xmlns="http://www.w3.org/2000/svg" xmlns:xlink="http://www.w3.org/1999/xlink">
    <title>编组 28</title>
    <g id="页面-1" stroke="none" stroke-width="1" fill="none" fill-rule="evenodd" opacity="0.100000001">
        <g id="校级管理员首页-考勤少员情况" transform="translate(-676.000000, -668.000000)">
            <g id="编组-29" transform="translate(676.000000, 236.000000)">
                <g id="编组-28" transform="translate(0.000000, 432.000000)">
                    <rect id="矩形" fill-opacity="0" fill="#FFFFFF" x="0" y="0" width="40" height="40"></rect>
                    <path d="M8.00000166,31.3253156 C7.99757418,26.7564049 10.6591011,22.6015147 14.8212075,20.6767839 C16.3663978,21.6663326 18.1625471,22.1976397 19.999776,22.208622 C21.837005,22.1976397 23.6331543,21.6663326 25.1783446,20.6767839 C29.340451,22.6015147 32.0019779,26.7564049 31.999775,31.3253156 C32.0848805,36.1836585 8.00000166,36.2659583 8.00000166,31.3253156 L8.00000166,31.3253156 Z M25.6983348,18.5449537 C24.9694868,19.2944151 24.0848405,19.8761365 23.1063839,20.2493559 C22.1570685,20.674129 21.0344231,20.8466931 19.999776,20.8466931 C18.9624624,20.8466931 17.839817,20.6767839 16.8905016,20.2493559 C15.9363045,19.8334613 15.0612804,19.256881 14.3038839,18.5449537 C13.5467425,17.8300968 12.9568143,16.9581786 12.5759167,15.9910051 C12.1439248,15.0538494 11.9705948,14.031739 11.9705948,12.9220192 C11.9705948,11.8999088 12.1439248,10.8777984 12.5759167,9.85568802 C13.0079085,8.91853226 13.6105637,7.98137653 14.3012173,7.29908466 C15.0798692,6.534493 15.9411863,5.93715576 16.8905016,5.59733724 C17.9278153,5.1725641 18.9624624,5 19.999776,5 C21.0344231,5 22.1597351,5.16990925 23.1063839,5.59733724 C24.0556992,6.02211037 25.0076812,6.6194476 25.6983348,7.29908466 C26.4716535,8.06898599 27.079642,8.91853226 27.4236354,9.85568802 C27.8556273,10.7928438 28.0289573,11.8149542 28.0289573,12.9220192 C28.0289573,13.9467844 27.8556273,14.9662399 27.4236354,15.9910051 C27.0769754,16.9281609 26.4743201,17.780362 25.6983348,18.5449537 L25.6983348,18.5449537 Z" id="形状" fill="#FF7C4D" fill-rule="nonzero"></path>
                </g>
            </g>
        </g>
    </g>
</svg>