<?xml version="1.0" encoding="UTF-8"?>
<svg width="24px" height="24px" viewBox="0 0 24 24" version="1.1" xmlns="http://www.w3.org/2000/svg" xmlns:xlink="http://www.w3.org/1999/xlink">
  <path d="M4,17.9736649 C4,19.6905081 5.40627291,21 7.14260084,21 L19.1431453,21 C19.6166392,21 20,20.6209297 20,20.1527351 C20,19.6844108 19.6166392,19.3054703 19.1431453,19.3054703 C18.3559568,19.3054703 17.714267,18.7520432 17.714267,17.9736649 C17.714267,17.1952865 18.3559568,16.6418595 19.1431453,16.6418595 C19.590006,16.6418595 19.9426664,16.3013189 19.9836002,15.8695914 L20,15.8695914 L20,4.41283459 C20,3.63243243 19.3604093,3 18.5712529,3 L5.42882586,3 C4.63959066,3 4,3.63243243 4,4.49391568 L4,17.4891243 M8.28443089,6.67297297 L15.7135355,6.67297297 C16.1870688,6.67297297 16.5704165,7.05203027 16.5704165,7.52026378 C16.5704165,7.98851027 16.1870688,8.36756757 15.7135355,8.36756757 L8.28443089,8.36756757 C7.81089764,8.36756757 7.42754996,7.98851027 7.42754996,7.52026378 C7.42754996,7.05203027 7.81089764,6.67297297 8.28443089,6.67297297 Z M8.28443089,10.1574357 L15.7135355,10.1574357 C16.1870688,10.1574357 16.5704165,10.53648 16.5704165,11.0047265 C16.5704165,11.472973 16.1870688,11.8520303 15.7135355,11.8520303 L8.28443089,11.8520303 C7.81089764,11.8520303 7.42754996,11.472973 7.42754996,11.0047265 C7.42754996,10.53648 7.81089764,10.1574357 8.28443089,10.1574357 Z M7.14260084,19.3053405 C6.35541233,19.3053405 5.71377498,18.7520432 5.71377498,17.9736649 C5.71377498,17.1952865 6.35541233,16.6418595 7.14260084,16.6418595 L16.3572196,16.6418595 C16.1358228,17.0675027 16.0005314,17.4608432 16.0005314,17.9736649 C16.0005314,18.4864865 16.1378695,18.8796973 16.3572196,19.3053405 L7.14260084,19.3053405 Z" id="形状" fill-rule="nonzero"></path>
</svg>