<?xml version="1.0" encoding="UTF-8"?>
<svg width="88px" height="88px" viewBox="0 0 88 88" version="1.1" xmlns="http://www.w3.org/2000/svg" xmlns:xlink="http://www.w3.org/1999/xlink">
    <title>编组 28</title>
    <g id="页面-1" stroke="none" stroke-width="1" fill="none" fill-rule="evenodd">
        <g id="校级管理员首页" transform="translate(-676.000000, -236.000000)">
            <g id="编组-28" transform="translate(676.000000, 236.000000)">
                <rect id="矩形" fill-opacity="0" fill="#FFFFFF" x="0" y="0" width="88" height="88"></rect>
                <path d="M73,73.90625 C67.5742986,75.96875 58.1167051,77 44.6272196,77 C31.1376255,77 21.5952189,75.96875 16,73.90625 C16,68.504975 17.3362334,64.4831 20.0087001,61.840625 C20.8040873,61.0544 21.7585194,60.42905 22.9038623,60.0681125 C23.2283863,59.9649875 23.5529103,59.8618625 23.8710407,59.7587375 C30.4122213,57.6574625 36.4571069,55.55 36.4571069,53.448725 L36.4571069,49.4334087 C36.4571069,49.2915912 36.3425523,49.1884662 36.215292,49.1884662 C36.1834871,49.1884662 36.1516822,49.1949013 36.1198773,49.2078125 C35.7253499,49.37537 34.9554351,49.5945312 33.6764791,49.5945312 C32.6520029,49.5945312 31.3030435,49.4527138 29.5532446,49.0273438 L27.9624703,48.5181537 L24.1510134,47.3 C23.4702013,47.0808387 23.2156806,46.2429687 23.6610714,45.6757812 C25.0163836,43.9548725 27.2561653,40.4099712 27.2561653,35.7951275 C27.2561653,29.1757812 27.2561653,18.1543175 34.1536747,13.7392557 C37.5833506,11.5414062 40.9875744,11 43.5645857,11 C43.8891097,11 44.2072402,11.0064453 44.5063121,11.0257812 C44.7926377,11.0128906 45.0980624,11.0064453 45.40984,11.0064453 C47.9932449,11.0064453 51.4038216,11.5414062 54.8525559,13.7457031 C61.7501875,18.1607525 61.7501875,29.1822162 61.7501875,35.8015625 C61.7501875,40.4164062 63.9960777,43.9613487 65.3452407,45.6822162 C65.7907537,46.2494037 65.536233,47.087315 64.8553394,47.306435 L61.0375297,48.52463 L59.452986,49.0273438 C57.7031057,49.4527138 56.3542684,49.5945312 55.3297923,49.5945312 C54.0508363,49.5945312 53.2809215,49.368935 52.8927877,49.2078125 C52.8609421,49.1949013 52.8291372,49.1884662 52.7973323,49.1884662 C52.6700719,49.1884662 52.5555173,49.2915912 52.5555173,49.4334087 L52.5555173,53.448725 C52.5555173,55.5434 58.5876158,57.6574625 65.129,59.7587375 C65.4535647,59.8618625 65.7716137,59.9649875 66.0961784,60.0681125 C67.2413177,60.43565 68.1958719,61.0544 68.9911981,61.840625 C71.6637327,64.4831 73,68.504975 73,73.90625 Z" id="路径" fill="#FF7C4D" fill-rule="nonzero"></path>
            </g>
        </g>
    </g>
</svg>