<?xml version="1.0" encoding="UTF-8"?>
<svg width="88px" height="88px" viewBox="0 0 88 88" version="1.1" xmlns="http://www.w3.org/2000/svg" xmlns:xlink="http://www.w3.org/1999/xlink">
    <title>编组 28</title>
    <g id="页面-1" stroke="none" stroke-width="1" fill="none" fill-rule="evenodd">
        <g id="校级管理员首页-考勤少员情况" transform="translate(-674.000000, -236.000000)">
            <g id="编组-28" transform="translate(674.000000, 236.000000)">
                <rect id="矩形" fill-opacity="0" fill="#FFFFFF" x="0" y="0" width="88" height="88"></rect>
                <path d="M18.0000037,68.9156944 C17.994643,58.8640908 23.8721817,49.7233323 33.0634998,45.4889245 C36.475795,47.6659316 40.4422916,48.8348072 44.4995054,48.8589685 C48.5567193,48.8348072 52.5232158,47.6659316 55.935511,45.4889245 C65.1268292,49.7233323 71.0043679,58.8640908 70.9995031,68.9156944 C71.1874444,79.6040487 18.0000037,79.7851082 18.0000037,68.9156944 L18.0000037,68.9156944 Z M57.0838226,40.7988981 C55.4742832,42.4477133 53.5206894,43.7275002 51.359931,44.548583 C49.2635263,45.4830839 46.784351,45.8627249 44.4995054,45.8627249 C42.208771,45.8627249 39.7295958,45.4889246 37.633191,44.548583 C35.5260057,43.6336149 33.593661,42.3651381 31.921077,40.7988981 C30.2490564,39.226213 28.9462983,37.3079928 28.1051493,35.1802113 C27.1511673,33.1184686 26.7683968,30.8698258 26.7683968,28.4284422 C26.7683968,26.1797993 27.1511673,23.9311565 28.1051493,21.6825137 C29.0591312,19.620771 30.3899949,17.5590284 31.9151883,16.0579862 C33.6347112,14.3758846 35.5367863,13.0617427 37.633191,12.3141419 C39.9239254,11.379641 42.208771,11 44.4995054,11 C46.784351,11 49.2694151,11.3738003 51.359931,12.3141419 C53.4563358,13.2486428 55.5586293,14.5627847 57.0838226,16.0579862 C58.7915681,17.7517692 60.1342093,19.620771 60.8938616,21.6825137 C61.8478435,23.7442563 62.2306141,25.9928991 62.2306141,28.4284422 C62.2306141,30.6829256 61.8478435,32.9257279 60.8938616,35.1802113 C60.1283206,37.241954 58.7974568,39.1167964 57.0838226,40.7988981 L57.0838226,40.7988981 Z" id="形状" fill="#FF7C4D" fill-rule="nonzero"></path>
            </g>
        </g>
    </g>
</svg>