<?xml version="1.0" encoding="UTF-8"?>
<svg width="88px" height="88px" viewBox="0 0 88 88" version="1.1" xmlns="http://www.w3.org/2000/svg" xmlns:xlink="http://www.w3.org/1999/xlink">
    <title>编组 28</title>
    <g id="页面-1" stroke="none" stroke-width="1" fill="none" fill-rule="evenodd">
        <g id="校级管理员首页-考勤少员情况" transform="translate(-676.000000, -236.000000)">
            <g id="编组-28" transform="translate(676.000000, 236.000000)">
                <rect id="矩形" fill-opacity="0" fill="#FFFFFF" x="0" y="0" width="88" height="88"></rect>
                <path d="M44.4941836,77 C44.3093474,77 44.1243992,76.9994857 43.9393745,76.9984704 L44.6272196,77 C31.1376255,77 21.5952189,75.96875 16,73.90625 C16,68.504975 17.3362334,64.4831 20.0087001,61.840625 C20.8040873,61.0544 21.7585194,60.42905 22.9038623,60.0681125 C23.2283863,59.9649875 23.5529103,59.8618625 23.8710407,59.7587375 C30.2516119,57.7090563 36.1599607,55.6534877 36.4462561,53.6035174 L36.4229773,53.9259875 C36.5438499,52.528025 36.5374967,51.123215 36.5247497,49.7185287 C36.5183966,49.1708525 36.5120434,48.6167 36.5120434,48.0690237 C35.7104885,47.4504387 33.6711317,46.5419075 33.1876819,45.6462875 C32.3797738,44.06765 31.7945108,42.3665825 31.5464124,40.6010825 C31.5400592,40.54952 31.5018996,40.5044338 31.4446399,40.4915638 C30.5540188,40.285355 29.8987897,39.512165 29.555272,38.6680662 C29.1544945,37.7079725 28.9573027,36.6770525 28.8936898,35.6460912 C28.8427832,34.6538225 29.2308544,33.6486425 29.9560495,32.9978412 C30.0260155,32.9334087 30.057822,32.83676 30.0324094,32.7465463 C29.2944673,29.6408338 28.7537171,26.4513425 28.8809835,23.242505 C28.9636559,21.22571 29.3199206,19.1831337 30.1659883,17.3596362 C30.8593769,15.8647775 31.8962832,14.5309918 33.2003881,13.5644754 C35.8213042,11.605682 41.523356,11.0515472 44.6786692,11 C46.4598707,11.0322172 50.6987853,11.2899541 52.2445947,12.2757965 C52.8171514,12.6301876 53.2815418,13.14566 53.6504721,13.7126825 C55.1518095,13.9510869 56.6594594,14.5116661 57.7981789,15.5941775 C59.4456387,17.1534688 60.2027216,19.46021 60.4254889,21.7089538 C60.8005687,25.4397275 60.0947996,29.176895 59.0768305,32.7336763 C59.0513772,32.830325 59.0768305,32.9334087 59.1532312,32.9978413 C59.9164229,33.6808587 60.2980188,34.7569063 60.1966128,35.8007375 C60.0817675,37.0378663 59.8337506,38.3265575 59.1467151,39.389735 C58.7969257,39.9245413 58.2625286,40.3175713 57.651853,40.4722175 C57.6009464,40.4851288 57.5627868,40.52378 57.5564337,40.5817775 C57.2955883,42.4503613 56.6849127,44.2609475 55.8133917,45.9233637 C55.3808078,46.7159 53.1957517,47.5020012 52.4832629,48.0561125 C52.4832629,48.623135 52.4705159,49.1901575 52.4705159,49.75718 C52.4593851,50.9876958 52.4531296,52.218085 52.5372756,53.4487635 L52.5555173,53.448725 C52.5555173,55.5434 58.5876158,57.6574625 65.129,59.7587375 L66.0961784,60.0681125 C67.2413177,60.43565 68.1958719,61.0544 68.9911981,61.840625 C71.6637327,64.4831 73,68.504975 73,73.90625 C67.5742986,75.96875 58.1167051,77 44.6272196,77 L44.4941836,77 Z" id="形状结合" fill="#FF7C4D" fill-rule="nonzero"></path>
            </g>
        </g>
    </g>
</svg>