<?xml version="1.0" encoding="UTF-8"?>
<svg width="24px" height="24px" viewBox="0 0 24 24" version="1.1" xmlns="http://www.w3.org/2000/svg" xmlns:xlink="http://www.w3.org/1999/xlink">
    <path d="M13.7276556,7.06879736 L15.3193806,7.06879736 C15.6126306,7.06879736 15.8498806,7.30610986 15.8498806,7.59937236 C15.8498806,7.89264736 15.6126306,8.12995986 15.3193806,8.12995986 L13.7276556,8.12995986 C13.4343931,8.12995986 13.1970431,7.89264736 13.1970431,7.59937236 C13.1970431,7.30610986 13.4344056,7.06879736 13.7276556,7.06879736 Z M13.7276556,4.94649736 L16.3805056,4.94649736 C16.6737556,4.94649736 16.9110056,5.18379736 16.9110056,5.47708486 C16.9110056,5.77034736 16.6737556,6.00764736 16.3805056,6.00764736 L13.7276556,6.00764736 C13.4343931,6.00764736 13.1970431,5.77034736 13.1970431,5.47708486 C13.1970431,5.18379736 13.4344056,4.94649736 13.7276556,4.94649736 Z M7.36081812,3.35479736 L10.5441931,3.35479736 C11.4229431,3.35479736 12.1359056,4.06723861 12.1359056,4.94652236 L12.1359056,8.12995986 C12.1359056,9.00923486 11.4229431,9.72164736 10.5441931,9.72164736 L7.36081812,9.72164736 C6.48198062,9.72164736 5.76908062,9.00923486 5.76908062,8.12995986 L5.76908062,4.94649736 C5.76908062,4.06721986 6.48198062,3.35479736 7.36081812,3.35479736 Z M15.5841306,11.5257974 L17.5436306,9.56618486 C17.7510056,9.35897236 18.0872556,9.35897236 18.2940056,9.56618486 C18.5011306,9.77344736 18.5011306,10.1091849 18.2940056,10.3164599 L16.2752556,12.3351349 C16.3450056,12.5170474 16.3807556,12.7102474 16.3805056,12.9050724 L16.3805056,16.6190474 L1.52450562,16.6190474 L1.52450562,12.9050474 C1.52450562,12.0257974 2.23749437,11.3133724 3.11624312,11.3133724 L14.7887556,11.3133724 C15.0783806,11.3133724 15.3498806,11.3905849 15.5841306,11.5257974 Z" id="形状" fill-rule="nonzero"></path>
</svg>