<?xml version="1.0" encoding="UTF-8"?>
<svg width="24px" height="24px" viewBox="0 0 24 24" version="1.1" xmlns="http://www.w3.org/2000/svg" xmlns:xlink="http://www.w3.org/1999/xlink">
    <title>编组备份</title>
    <defs>
        <rect id="path-1" x="0" y="0" width="20" height="20"></rect>
    </defs>
    <g id="页面-1" stroke="none" stroke-width="1" fill="none" fill-rule="evenodd">
        <g id="登录-学生" transform="translate(-1748.000000, -50.000000)">
            <g id="编组-6" transform="translate(1732.000000, 38.000000)">
                <g id="编组备份" transform="translate(16.000000, 12.000000)">
                    <rect id="矩形" fill-opacity="0" fill="#FFFFFF" x="0" y="0" width="24" height="24"></rect>
                    <g id="编组" transform="translate(2.000000, 2.000000)">
                        <mask id="mask-2" fill="white">
                            <use xlink:href="#path-1"></use>
                        </mask>
                        <g id="矩形"></g>
                        <path d="M10,18.3984375 C5.3691375,18.3984375 1.6015625,14.6310625 1.6015625,10 C1.6015625,5.3691375 5.3691375,1.6015625 10,1.6015625 C14.6310625,1.6015625 18.3984375,5.3691375 18.3984375,10 C18.3984375,14.6310625 14.6310625,18.3984375 10,18.3984375 Z M10,2.7734375 C6.0152375,2.7734375 2.7734375,6.0152375 2.7734375,10 C2.7734375,13.9847625 6.0152375,17.2265625 10,17.2265625 C13.9847625,17.2265625 17.2265625,13.9847625 17.2265625,10 C17.2265625,6.0152375 13.9847625,2.7734375 10,2.7734375 Z M10,18.3984375 C7.7002,18.3984375 5.8984375,14.7091875 5.8984375,10 C5.8984375,5.290625 7.7002,1.6015625 10,1.6015625 C12.2998,1.6015625 14.1015625,5.290625 14.1015625,10 C14.1015625,14.7091875 12.2998,18.3984375 10,18.3984375 Z M10,2.7734375 C8.6142625,2.7734375 7.0703125,5.7412125 7.0703125,10 C7.0703125,14.2588125 8.6142625,17.2265625 10,17.2265625 C11.3859375,17.2265625 12.9296875,14.2588125 12.9296875,10 C12.9296875,5.7412125 11.3859375,2.7734375 10,2.7734375 Z M17.8125625,10.5859375 L2.1875,10.5859375 C1.8638675,10.5859375 1.6015625,10.3236375 1.6015625,10 C1.6015625,9.6763625 1.8638675,9.4140625 2.1875,9.4140625 L17.8125625,9.4140625 C18.1359375,9.4140625 18.3984375,9.6763625 18.3984375,10 C18.3984375,10.3236375 18.1359375,10.5859375 17.8125625,10.5859375 Z M10,18.3328125 C9.6763625,18.3328125 9.4140625,18.0703125 9.4140625,17.7469375 L9.4140625,2.1875 C9.4140625,1.8638675 9.6763625,1.6015625 10,1.6015625 C10.3236375,1.6015625 10.5859375,1.8638675 10.5859375,2.1875 L10.5859375,17.7469375 C10.5859375,18.0703125 10.3236375,18.3328125 10,18.3328125 Z M10,18.3984375 C7.9630875,18.3984375 5.994525,17.6531875 4.457225,16.2991875 C4.33105,16.1879375 4.2584,16.0275625 4.2584,15.8593125 C4.2584,15.6911875 4.3308625,15.5308125 4.457225,15.4195625 C5.9945375,14.065625 7.9630875,13.3203125 10,13.3203125 C12.0371125,13.3203125 14.005475,14.065625 15.5428125,15.4195625 C15.6689375,15.5308125 15.7415625,15.6911875 15.7415625,15.8593125 C15.7415625,16.0275625 15.6691875,16.1879375 15.5428125,16.2991875 C14.005475,17.6531875 12.0371125,18.3984375 10,18.3984375 Z M5.782425,15.8593125 C7.009575,16.7450625 8.4828125,17.2265625 10,17.2265625 C11.5171875,17.2265625 12.990425,16.7450625 14.2175625,15.8593125 C12.990425,14.9736875 11.5171875,14.4921875 10,14.4921875 C8.4828125,14.4921875 7.009575,14.9736875 5.782425,15.8593125 Z M10,6.6796875 C7.9627,6.6796875 5.9943375,5.934175 4.457225,4.580275 C4.3308625,4.4691375 4.2584,4.3087875 4.2584,4.140625 C4.2584,3.9724625 4.3306625,3.8121125 4.457225,3.700975 C5.9943375,2.34707 7.9627,1.6015625 10,1.6015625 C12.0371125,1.6015625 14.0058625,2.34707 15.5428125,3.700975 C15.6689375,3.8121125 15.7415625,3.9724625 15.7415625,4.140625 C15.7415625,4.3087875 15.6691875,4.4691375 15.5428125,4.580275 C14.0058625,5.934175 12.0371125,6.6796875 10,6.6796875 Z M5.782425,4.140625 C7.009375,5.0265625 8.4826125,5.5078125 10,5.5078125 C11.5171875,5.5078125 12.990625,5.0265625 14.2175625,4.140625 C12.990825,3.2546875 11.5171875,2.7734375 10,2.7734375 C8.4826125,2.7734375 7.009375,3.2546875 5.782425,4.140625 Z" id="形状" fill="#FFFFFF" fill-rule="nonzero" mask="url(#mask-2)"></path>
                    </g>
                </g>
            </g>
        </g>
    </g>
</svg>